<?xml version="1.0" encoding="utf-8"?>
<!-- Generator: Adobe Illustrator 20.0.0, SVG Export Plug-In . SVG Version: 6.00 Build 0)  -->
<svg version="1.0" id="Layer_1" xmlns="http://www.w3.org/2000/svg" xmlns:xlink="http://www.w3.org/1999/xlink" x="0px" y="0px"
	 viewBox="0 0 160 200" style="enable-background:new 0 0 160 200;" xml:space="preserve">
<style type="text/css">
	.st0{fill:none;}
	.st1{fill:#FFFFFF;}
	.st2{fill:#F6BE34;}
	.st3{fill:#FCE5AE;}
	.st4{fill:#DFC996;}
	.st5{fill:#FFD14D;}
	.st6{fill:#FFEDC1;}
	.st7{fill:#494C56;}
	.st8{clip-path:url(#SVGID_2_);}
	.st9{fill:#90641A;}
	.st10{clip-path:url(#SVGID_4_);}
	.st11{fill:url(#SVGID_5_);}
	.st12{fill:#D51123;}
	.st13{fill:#E1354A;}
	.st14{fill:#6B707B;}
	.st15{fill:#FEE7B8;}
	.st16{fill:#99C55D;}
	.st17{fill:#80CBDD;}
	.st18{fill:url(#SVGID_6_);}
	.st19{fill:url(#SVGID_7_);}
	.st20{fill:url(#SVGID_8_);stroke:#FFFFFF;stroke-width:0.5;stroke-linecap:round;stroke-linejoin:round;stroke-miterlimit:10;}
	.st21{fill:url(#SVGID_9_);stroke:#FFFFFF;stroke-width:0.5;stroke-linecap:round;stroke-linejoin:round;stroke-miterlimit:10;}
	.st22{fill:url(#SVGID_10_);stroke:#FFFFFF;stroke-width:0.5;stroke-linecap:round;stroke-linejoin:round;stroke-miterlimit:10;}
	.st23{fill:none;stroke:#FFFFFF;stroke-width:0.75;stroke-linecap:round;stroke-linejoin:round;stroke-miterlimit:10;}
	.st24{fill:url(#SVGID_11_);stroke:#FFFFFF;stroke-width:0.75;stroke-linecap:round;stroke-linejoin:round;stroke-miterlimit:10;}
	.st25{fill:#572773;}
</style>
<pattern  width="200" height="200" patternUnits="userSpaceOnUse" id="New_Pattern" viewBox="16.8 -200 200 200" style="overflow:visible;">
	<g>
		<rect x="16.8" y="-200" class="st0" width="200" height="200"/>
		<g>
			<g>
				<path class="st1" d="M120.3-189.9v1.5c0,0.5-0.1,1.1-0.2,1.5c-0.1,0.5-0.3,0.9-0.6,1.3c-0.3,0.4-0.6,0.6-1,0.9
					c-0.4,0.2-0.9,0.3-1.5,0.3c-0.7,0-1.2-0.1-1.7-0.3c-0.5-0.2-0.8-0.5-1.1-0.9c-0.3-0.4-0.5-0.8-0.6-1.3c-0.1-0.5-0.2-1.1-0.2-1.7
					v-1.4H120.3z"/>
				<path class="st1" d="M133.9-200v7.5c0,8.8-6.6,16-15.2,16.9h0c-0.6,0.1-1.2,0.1-1.8,0.1c-0.6,0-1.2,0-1.9-0.1
					c-8.5-0.9-15.2-8.2-15.2-16.9v-7.5h6v0.8l-2.5,1v2.9l10.9-4.7h5.2l10.9,4.7v-2.9l-2.5-1v-0.8H133.9z M122.7-192.5H111v4.2
					c0,0.9,0.1,1.7,0.4,2.5c0.3,0.8,0.6,1.5,1.1,2.1c0.5,0.6,1.1,1.1,1.8,1.5c0.7,0.4,1.6,0.5,2.5,0.5c1.1,0,2-0.2,2.7-0.6
					c0.8-0.4,1.4-0.9,1.8-1.5c0.5-0.6,0.8-1.4,1-2.2c0.2-0.9,0.3-1.7,0.3-2.7V-192.5z"/>
			</g>
			<g>
				<path class="st1" d="M111.6-1.5L108-0.1v-2.9L111.6-1.5z M125.6-2.9v2.9L122-1.5L125.6-2.9z M125.6-2.9v2.9L122-1.5L125.6-2.9z
					 M111.6-1.5L108-0.1v-2.9L111.6-1.5z M111.6-1.5L108-0.1v-2.9L111.6-1.5z M125.6-2.9v2.9L122-1.5L125.6-2.9z M125.6-2.9v2.9
					L122-1.5L125.6-2.9z M111.6-1.5L108-0.1v-2.9L111.6-1.5z M111.6-1.5L108-0.1v-2.9L111.6-1.5z M125.6-2.9v2.9L122-1.5L125.6-2.9z
					 M125.6-2.9v2.9L122-1.5L125.6-2.9z M111.6-1.5L108-0.1v-2.9L111.6-1.5z M111.6-1.5L108-0.1v-2.9L111.6-1.5z M125.6-2.9v2.9
					L122-1.5L125.6-2.9z M125.6-2.9v2.9L122-1.5L125.6-2.9z M111.6-1.5L108-0.1v-2.9L111.6-1.5z M111.6-1.5L108-0.1v-2.9L111.6-1.5z
					 M125.6-2.9v2.9L122-1.5L125.6-2.9z M125.6-2.9v2.9L122-1.5L125.6-2.9z M111.6-1.5L108-0.1v-2.9L111.6-1.5z M111.6-1.5L108-0.1
					v-2.9L111.6-1.5z M125.6-2.9v2.9L122-1.5L125.6-2.9z M125.6-2.9v2.9L122-1.5L125.6-2.9z M111.6-1.5L108-0.1v-2.9L111.6-1.5z
					 M111.6-1.5L108-0.1v-2.9L111.6-1.5z M125.6-2.9v2.9L122-1.5L125.6-2.9z M133.9-10.1V0h-6.1v-3.7l2.5-1v-2.8l-11.7,5.1v2.1
					l0.8,0.4h-5.2l0.8-0.4v-2.1l-11.7-5.1v2.8l2.5,1V0h-6v-10.1H133.9z M111.6-1.5L108-0.1v-2.9L111.6-1.5z M125.6-2.9v2.9L122-1.5
					L125.6-2.9z M125.6-2.9v2.9L122-1.5L125.6-2.9z M111.6-1.5L108-0.1v-2.9L111.6-1.5z M111.6-1.5L108-0.1v-2.9L111.6-1.5z
					 M125.6-2.9v2.9L122-1.5L125.6-2.9z M125.6-2.9v2.9L122-1.5L125.6-2.9z M111.6-1.5L108-0.1v-2.9L111.6-1.5z M111.6-1.5L108-0.1
					v-2.9L111.6-1.5z M125.6-2.9v2.9L122-1.5L125.6-2.9z M125.6-2.9v2.9L122-1.5L125.6-2.9z M111.6-1.5L108-0.1v-2.9L111.6-1.5z
					 M111.6-1.5L108-0.1v-2.9L111.6-1.5z M125.6-2.9v2.9L122-1.5L125.6-2.9z M125.6-2.9v2.9L122-1.5L125.6-2.9z M111.6-1.5L108-0.1
					v-2.9L111.6-1.5z M111.6-1.5L108-0.1v-2.9L111.6-1.5z M125.6-2.9v2.9L122-1.5L125.6-2.9z M125.6-2.9v2.9L122-1.5L125.6-2.9z
					 M111.6-1.5L108-0.1v-2.9L111.6-1.5z M111.6-1.5L108-0.1v-2.9L111.6-1.5z M125.6-2.9v2.9L122-1.5L125.6-2.9z M125.6-2.9v2.9
					L122-1.5L125.6-2.9z M111.6-1.5L108-0.1v-2.9L111.6-1.5z M125.6-2.9v2.9L122-1.5L125.6-2.9z M125.6-2.9v2.9L122-1.5L125.6-2.9z"
					/>
				<g>
					<path class="st1" d="M130.3-24.5v11.8h-3.4l-5.1-8.4h0v8.4h-2.6v-11.8h3.5l5,8.2h0v-8.2H130.3z"/>
					<path class="st1" d="M116.6-24.5v11.8h-2.6v-9h0l-3.1,9h-2l-3-9h0v9h-2.6v-11.8h3.9l2.7,7.7h0l2.7-7.7H116.6z"/>
				</g>
			</g>
			<g>
				<path class="st1" d="M216.8-89.7v5.5c-0.6,0-1-0.1-1.4-0.3c-0.5-0.2-0.8-0.5-1.1-0.9c-0.3-0.4-0.5-0.8-0.6-1.3
					c-0.1-0.5-0.2-1.1-0.2-1.7v-1.3H216.8z"/>
				<path class="st1" d="M211.8-101.3l-3.6,1.4v-2.9L211.8-101.3z M211.8-101.3l-3.6,1.4v-2.9L211.8-101.3z M211.8-101.3l-3.6,1.4
					v-2.9L211.8-101.3z M211.8-101.3l-3.6,1.4v-2.9L211.8-101.3z M211.8-101.3l-3.6,1.4v-2.9L211.8-101.3z M211.8-101.3l-3.6,1.4
					v-2.9L211.8-101.3z M211.8-101.3l-3.6,1.4v-2.9L211.8-101.3z M211.8-101.3l-3.6,1.4v-2.9L211.8-101.3z M211.8-101.3l-3.6,1.4
					v-2.9L211.8-101.3z M211.8-101.3l-3.6,1.4v-2.9L211.8-101.3z M211.8-101.3l-3.6,1.4v-2.9L211.8-101.3z M211.8-101.3l-3.6,1.4
					v-2.9L211.8-101.3z M211.8-101.3l-3.6,1.4v-2.9L211.8-101.3z M211.8-101.3l-3.6,1.4v-2.9L211.8-101.3z M211.8-101.3l-3.6,1.4
					v-2.9L211.8-101.3z M211.8-101.3l-3.6,1.4v-2.9L211.8-101.3z M211.8-101.3l-3.6,1.4v-2.9L211.8-101.3z M211.8-101.3l-3.6,1.4
					v-2.9L211.8-101.3z M211.8-101.3l-3.6,1.4v-2.9L211.8-101.3z M211.8-101.3l-3.6,1.4v-2.9L211.8-101.3z M211.8-101.3l-3.6,1.4
					v-2.9L211.8-101.3z M211.8-101.3l-3.6,1.4v-2.9L211.8-101.3z M211.8-101.3l-3.6,1.4v-2.9L211.8-101.3z M211.8-101.3l-3.6,1.4
					v-2.9L211.8-101.3z M211.1-92.3v4.2c0,0.9,0.1,1.7,0.4,2.5c0.3,0.8,0.6,1.5,1.1,2.1c0.5,0.6,1.1,1.1,1.8,1.5
					c0.7,0.3,1.5,0.5,2.4,0.5v6.2c-0.6,0-1.1,0-1.7-0.1c-8.5-0.9-15.2-8.2-15.2-16.9v-17.6h16.8v17.6H211.1z M215.2-100.2v-2.1
					l-11.7-5.1v2.9l2.5,1v4.6l-2.5,1v2.9L215.2-100.2z M208.2-102.7l3.6,1.4l-3.6,1.4V-102.7z M211.8-101.3l-3.6,1.4v-2.9
					L211.8-101.3z M211.8-101.3l-3.6,1.4v-2.9L211.8-101.3z M211.8-101.3l-3.6,1.4v-2.9L211.8-101.3z M211.8-101.3l-3.6,1.4v-2.9
					L211.8-101.3z M211.8-101.3l-3.6,1.4v-2.9L211.8-101.3z M211.8-101.3l-3.6,1.4v-2.9L211.8-101.3z M211.8-101.3l-3.6,1.4v-2.9
					L211.8-101.3z M211.8-101.3l-3.6,1.4v-2.9L211.8-101.3z M211.8-101.3l-3.6,1.4v-2.9L211.8-101.3z M211.8-101.3l-3.6,1.4v-2.9
					L211.8-101.3z M211.8-101.3l-3.6,1.4v-2.9L211.8-101.3z M211.8-101.3l-3.6,1.4v-2.9L211.8-101.3z M211.8-101.3l-3.6,1.4v-2.9
					L211.8-101.3z M211.8-101.3l-3.6,1.4v-2.9L211.8-101.3z M211.8-101.3l-3.6,1.4v-2.9L211.8-101.3z M211.8-101.3l-3.6,1.4v-2.9
					L211.8-101.3z M211.8-101.3l-3.6,1.4v-2.9L211.8-101.3z M211.8-101.3l-3.6,1.4v-2.9L211.8-101.3z M211.8-101.3l-3.6,1.4v-2.9
					L211.8-101.3z M211.8-101.3l-3.6,1.4v-2.9L211.8-101.3z M211.8-101.3l-3.6,1.4v-2.9L211.8-101.3z M211.8-101.3l-3.6,1.4v-2.9
					L211.8-101.3z"/>
				<path class="st1" d="M216.8-124.3v11.8h-2.6v-9h0l-3.1,9h-2l-3-9h0v9h-2.6v-11.8h3.9l2.7,7.7h0l2.7-7.7H216.8z"/>
			</g>
			<g>
				<path class="st1" d="M20.3-89.7v1.5c0,0.5-0.1,1.1-0.2,1.5c-0.1,0.5-0.3,0.9-0.6,1.3c-0.3,0.4-0.6,0.6-1,0.9
					c-0.4,0.2-0.9,0.3-1.5,0.3h-0.1v-5.6H20.3z"/>
				<path class="st1" d="M25.6-102.7v2.9l-3.6-1.4L25.6-102.7z M25.6-102.7v2.9l-3.6-1.4L25.6-102.7z M25.6-102.7v2.9l-3.6-1.4
					L25.6-102.7z M25.6-102.7v2.9l-3.6-1.4L25.6-102.7z M25.6-102.7v2.9l-3.6-1.4L25.6-102.7z M25.6-102.7v2.9l-3.6-1.4L25.6-102.7z
					 M25.6-102.7v2.9l-3.6-1.4L25.6-102.7z M25.6-102.7v2.9l-3.6-1.4L25.6-102.7z M25.6-102.7v2.9l-3.6-1.4L25.6-102.7z M25.6-102.7
					v2.9l-3.6-1.4L25.6-102.7z M25.6-102.7v2.9l-3.6-1.4L25.6-102.7z M25.6-102.7v2.9l-3.6-1.4L25.6-102.7z M25.6-102.7v2.9
					l-3.6-1.4L25.6-102.7z M25.6-102.7v2.9l-3.6-1.4L25.6-102.7z M25.6-102.7v2.9l-3.6-1.4L25.6-102.7z M25.6-102.7v2.9l-3.6-1.4
					L25.6-102.7z M25.6-102.7v2.9l-3.6-1.4L25.6-102.7z M25.6-102.7v2.9l-3.6-1.4L25.6-102.7z M25.6-102.7v2.9l-3.6-1.4L25.6-102.7z
					 M25.6-102.7v2.9l-3.6-1.4L25.6-102.7z M25.6-102.7v2.9l-3.6-1.4L25.6-102.7z M25.6-102.7v2.9l-3.6-1.4L25.6-102.7z M25.6-102.7
					v2.9l-3.6-1.4L25.6-102.7z M25.6-102.7v2.9l-3.6-1.4L25.6-102.7z M33.9-109.9v17.6c0,8.8-6.6,16-15.2,16.9h0
					c-0.6,0.1-1.2,0.1-1.8,0.1v-6.2c1.1,0,2-0.2,2.7-0.6c0.8-0.4,1.4-0.9,1.8-1.5c0.5-0.6,0.8-1.4,1-2.2c0.2-0.9,0.3-1.7,0.3-2.7
					v-3.9h-5.9v-17.6H33.9z M30.3-107.4l-11.7,5.1v2.1l11.7,5.1V-98l-2.5-1v-4.6l2.5-1V-107.4z M25.6-99.9l-3.6-1.4l3.6-1.4V-99.9z
					 M25.6-102.7v2.9l-3.6-1.4L25.6-102.7z M25.6-102.7v2.9l-3.6-1.4L25.6-102.7z M25.6-102.7v2.9l-3.6-1.4L25.6-102.7z M25.6-102.7
					v2.9l-3.6-1.4L25.6-102.7z M25.6-102.7v2.9l-3.6-1.4L25.6-102.7z M25.6-102.7v2.9l-3.6-1.4L25.6-102.7z M25.6-102.7v2.9
					l-3.6-1.4L25.6-102.7z M25.6-102.7v2.9l-3.6-1.4L25.6-102.7z M25.6-102.7v2.9l-3.6-1.4L25.6-102.7z M25.6-102.7v2.9l-3.6-1.4
					L25.6-102.7z M25.6-102.7v2.9l-3.6-1.4L25.6-102.7z M25.6-102.7v2.9l-3.6-1.4L25.6-102.7z M25.6-102.7v2.9l-3.6-1.4L25.6-102.7z
					 M25.6-102.7v2.9l-3.6-1.4L25.6-102.7z M25.6-102.7v2.9l-3.6-1.4L25.6-102.7z M25.6-102.7v2.9l-3.6-1.4L25.6-102.7z M25.6-102.7
					v2.9l-3.6-1.4L25.6-102.7z M25.6-102.7v2.9l-3.6-1.4L25.6-102.7z M25.6-102.7v2.9l-3.6-1.4L25.6-102.7z M25.6-102.7v2.9
					l-3.6-1.4L25.6-102.7z M25.6-102.7v2.9l-3.6-1.4L25.6-102.7z M25.6-102.7v2.9l-3.6-1.4L25.6-102.7z M25.6-102.7v2.9l-3.6-1.4
					L25.6-102.7z M25.6-102.7v2.9l-3.6-1.4L25.6-102.7z"/>
				<path class="st1" d="M30.3-124.3v11.8h-3.4l-5.1-8.4h0v8.4h-2.6v-11.8h3.5l5,8.2h0v-8.2H30.3z"/>
			</g>
		</g>
		<g>
			<g>
				<path class="st1" d="M16.8-89.7v5.5c-0.6,0-1-0.1-1.4-0.3c-0.5-0.2-0.8-0.5-1.1-0.9c-0.3-0.4-0.5-0.8-0.6-1.3
					c-0.1-0.5-0.2-1.1-0.2-1.7v-1.3H16.8z"/>
				<path class="st1" d="M11.8-101.3l-3.6,1.4v-2.9L11.8-101.3z M11.8-101.3l-3.6,1.4v-2.9L11.8-101.3z M11.8-101.3l-3.6,1.4v-2.9
					L11.8-101.3z M11.8-101.3l-3.6,1.4v-2.9L11.8-101.3z M11.8-101.3l-3.6,1.4v-2.9L11.8-101.3z M11.8-101.3l-3.6,1.4v-2.9
					L11.8-101.3z M11.8-101.3l-3.6,1.4v-2.9L11.8-101.3z M11.8-101.3l-3.6,1.4v-2.9L11.8-101.3z M11.8-101.3l-3.6,1.4v-2.9
					L11.8-101.3z M11.8-101.3l-3.6,1.4v-2.9L11.8-101.3z M11.8-101.3l-3.6,1.4v-2.9L11.8-101.3z M11.8-101.3l-3.6,1.4v-2.9
					L11.8-101.3z M11.8-101.3l-3.6,1.4v-2.9L11.8-101.3z M11.8-101.3l-3.6,1.4v-2.9L11.8-101.3z M11.8-101.3l-3.6,1.4v-2.9
					L11.8-101.3z M11.8-101.3l-3.6,1.4v-2.9L11.8-101.3z M11.8-101.3l-3.6,1.4v-2.9L11.8-101.3z M11.8-101.3l-3.6,1.4v-2.9
					L11.8-101.3z M11.8-101.3l-3.6,1.4v-2.9L11.8-101.3z M11.8-101.3l-3.6,1.4v-2.9L11.8-101.3z M11.8-101.3l-3.6,1.4v-2.9
					L11.8-101.3z M11.8-101.3l-3.6,1.4v-2.9L11.8-101.3z M11.8-101.3l-3.6,1.4v-2.9L11.8-101.3z M11.8-101.3l-3.6,1.4v-2.9
					L11.8-101.3z M11.1-92.3v4.2c0,0.9,0.1,1.7,0.4,2.5c0.3,0.8,0.6,1.5,1.1,2.1c0.5,0.6,1.1,1.1,1.8,1.5c0.7,0.3,1.5,0.5,2.4,0.5
					v6.2c-0.6,0-1.1,0-1.7-0.1C6.6-76.3,0-83.5,0-92.3v-17.6h16.8v17.6H11.1z M15.2-100.2v-2.1l-11.7-5.1v2.9l2.5,1v4.6l-2.5,1v2.9
					L15.2-100.2z M8.2-102.7l3.6,1.4l-3.6,1.4V-102.7z M11.8-101.3l-3.6,1.4v-2.9L11.8-101.3z M11.8-101.3l-3.6,1.4v-2.9L11.8-101.3
					z M11.8-101.3l-3.6,1.4v-2.9L11.8-101.3z M11.8-101.3l-3.6,1.4v-2.9L11.8-101.3z M11.8-101.3l-3.6,1.4v-2.9L11.8-101.3z
					 M11.8-101.3l-3.6,1.4v-2.9L11.8-101.3z M11.8-101.3l-3.6,1.4v-2.9L11.8-101.3z M11.8-101.3l-3.6,1.4v-2.9L11.8-101.3z
					 M11.8-101.3l-3.6,1.4v-2.9L11.8-101.3z M11.8-101.3l-3.6,1.4v-2.9L11.8-101.3z M11.8-101.3l-3.6,1.4v-2.9L11.8-101.3z
					 M11.8-101.3l-3.6,1.4v-2.9L11.8-101.3z M11.8-101.3l-3.6,1.4v-2.9L11.8-101.3z M11.8-101.3l-3.6,1.4v-2.9L11.8-101.3z
					 M11.8-101.3l-3.6,1.4v-2.9L11.8-101.3z M11.8-101.3l-3.6,1.4v-2.9L11.8-101.3z M11.8-101.3l-3.6,1.4v-2.9L11.8-101.3z
					 M11.8-101.3l-3.6,1.4v-2.9L11.8-101.3z M11.8-101.3l-3.6,1.4v-2.9L11.8-101.3z M11.8-101.3l-3.6,1.4v-2.9L11.8-101.3z
					 M11.8-101.3l-3.6,1.4v-2.9L11.8-101.3z M11.8-101.3l-3.6,1.4v-2.9L11.8-101.3z"/>
			</g>
		</g>
	</g>
</pattern>
<g>
	<g>
		<g>
			<path id="_x34__29_" class="st2" d="M129.2,159.3c-3.2-2.8-8.4-6.3-13.4-6.8c-1.2-0.1-6.6-1.5-12.9-3.2c-0.3-0.1-0.6-0.2-0.9-0.3
				c0,0,0,0,0,0c-0.4-0.1-0.8-0.2-1.2-0.3c-3.9-1.1-8-2.2-11.6-3.2c-0.1,0-0.2,0-0.2-0.1c-0.2-0.1-0.4-0.1-0.6-0.2
				c-0.1,0-0.2-0.1-0.3-0.1c-0.2,0-0.4-0.1-0.5-0.1c-0.1,0-0.2-0.1-0.3-0.1c-0.2,0-0.3-0.1-0.5-0.1c-0.3-0.1-0.6-0.2-0.9-0.2
				c-0.1,0-0.1,0-0.2,0c-0.1,0-0.2-0.1-0.3-0.1c-0.2,0-0.3-0.1-0.5-0.1c-2.4-0.7-4.3-1.2-5.4-1.5c0,0,0,0,0,0
				c-0.2-0.1-0.3-0.1-0.5-0.1c0,0-0.1,0-0.1,0c-0.1,0-0.2-0.1-0.3-0.1c-0.1,0-0.2-0.1-0.2-0.1s-0.1,0-0.3,0.1c0,0,0,0,0,0
				c0,0-0.1,0-0.1,0c0,0-0.1,0-0.1,0c-0.1,0-0.1,0-0.2,0.1c-0.1,0-0.2,0.1-0.4,0.1c-0.1,0-0.1,0-0.2,0c0,0-0.1,0-0.1,0
				c-0.2,0.1-0.4,0.1-0.6,0.2c0,0-0.1,0-0.2,0c0,0,0,0,0,0c-0.1,0-0.3,0.1-0.5,0.1c-0.1,0-0.1,0-0.2,0.1c-0.1,0-0.1,0-0.2,0.1
				c0,0,0,0-0.1,0c0,0,0,0,0,0c-0.1,0-0.3,0.1-0.4,0.1c0,0,0,0,0,0c0,0,0,0-0.1,0c0,0-0.1,0-0.1,0c-0.1,0-0.2,0-0.2,0.1
				c-0.4,0.1-0.9,0.2-1.4,0.4c-0.1,0-0.1,0-0.2,0.1c-0.2,0-0.3,0.1-0.5,0.1c0,0-0.1,0-0.1,0c-0.2,0-0.3,0.1-0.5,0.1
				c-0.1,0-0.2,0.1-0.3,0.1c-0.1,0-0.3,0.1-0.4,0.1c-0.1,0-0.2,0-0.3,0.1c-0.3,0.1-0.5,0.1-0.8,0.2c-0.2,0-0.3,0.1-0.5,0.1
				c-0.1,0-0.2,0.1-0.3,0.1c-0.2,0.1-0.4,0.1-0.5,0.2c-0.1,0-0.2,0.1-0.4,0.1c-0.2,0-0.3,0.1-0.5,0.1c-0.1,0-0.2,0.1-0.4,0.1
				c-0.1,0-0.2,0.1-0.4,0.1c-0.1,0-0.1,0-0.2,0.1c0,0,0,0,0,0c-0.1,0-0.2,0.1-0.3,0.1c-0.1,0-0.3,0.1-0.4,0.1c0,0,0,0-0.1,0
				c-0.1,0-0.2,0.1-0.4,0.1c-0.1,0-0.2,0.1-0.3,0.1c-0.2,0.1-0.5,0.1-0.7,0.2c-0.1,0-0.2,0.1-0.3,0.1c-0.2,0.1-0.4,0.1-0.6,0.2
				c-0.1,0-0.2,0.1-0.4,0.1c-0.2,0.1-0.5,0.1-0.7,0.2c-0.1,0-0.2,0.1-0.3,0.1c-0.1,0-0.1,0-0.2,0c0,0,0,0,0,0
				c-0.2,0.1-0.4,0.1-0.6,0.2c-0.1,0-0.3,0.1-0.4,0.1c-0.2,0.1-0.4,0.1-0.6,0.2c-0.1,0-0.3,0.1-0.4,0.1c-0.2,0.1-0.4,0.1-0.6,0.2
				c-0.1,0-0.3,0.1-0.4,0.1c-0.3,0.1-0.6,0.2-0.8,0.2c0,0-0.1,0-0.1,0c-0.3,0.1-0.6,0.2-1,0.3c-0.1,0-0.2,0.1-0.3,0.1
				c-0.2,0.1-0.4,0.1-0.6,0.2c0,0,0,0,0,0c-0.1,0-0.2,0.1-0.4,0.1c-0.2,0-0.4,0.1-0.5,0.1c-0.1,0-0.3,0.1-0.4,0.1
				c-0.2,0.1-0.4,0.1-0.7,0.2c-6.6,1.8-12.3,3.3-13.5,3.4c-4.9,0.5-10.2,4.1-13.4,6.8c-5.8,5-4.7,11.1-6.4,16.6
				c15.3,13.3,35.3,21.4,57.2,21.4s41.9-8.1,57.2-21.4C133.9,170.4,135,164.3,129.2,159.3z"/>
			<path id="_x33__29_" class="st3" d="M78.4,108.4L60,106l7.1,38.7c4.9,3.4,6.6,7,7.3,8.9c0.8,2.2,1.2,5.1,1.3,6.1
				c0.4,3,0.3,3.9,0.7,6.5c0.1,0.8,1.1,6.1,2.1,6.1c1.1,0-0.3-7.8,3.7-16.3c2.6-5.4,7.5-11.3,7.5-11.3l0,0l7.1-38.7L78.4,108.4z"/>
			<path id="_x32__20_" class="st4" d="M93.2,112.6L62.9,122l3.1,16.8c4.6,5.7,11.7,11,22.2,11.4c1.2-2.9,1.5-5.5,1.5-5.5l5.3-28.8
				C93.9,113.9,93.2,112.6,93.2,112.6z"/>
			<path id="_x31__20_" class="st5" d="M96,146.6l-4.6-6.3c-3.8,4.1-7.8,8.3-11.6,12.4c0.3,1.1,0.5,2.8,0.3,4.8
				c-0.2,2.1-1,2.8-1.5,4.9c-1,4.1,0.1,7.1-0.2,7.1c-0.4,0.1-2.2-4.3-2.2-9.6c0-2.9,0.5-5.4,1-7c-3.8-4.2-7.6-8.5-11.3-12.7
				l-3.9,6.3c-0.5,0.5,0,1.4,0,1.4s5.9,13,6.1,14.8c0.2,1.7,1.3,1,1.3,1s4-5.7,5-6.1c0.8-0.3,0.7,1,0.7,1l0.9,19.3h4.9l0.9-19.3
				c0,0-0.1-1.1,0.7-0.8c1,0.4,5,6,5,6s1.7,0.7,1.9-1C89.5,161.1,96,148,96,148C96,147.6,96,147.1,96,146.6z"/>
			<path id="face_18_" class="st6" d="M78.4,70.7H50.9c0,0,2.1,37.6,4.8,45.4c3.1,8.8,6.2,10.9,13.2,16.3c5.8,4.6,9.5,4,9.5,4
				s3.6,0.6,9.5-4c7-5.5,10.6-7.6,13.6-16.3c2.7-7.8,4.4-45.4,4.4-45.4H78.4z"/>
			<path id="ear_39_" class="st3" d="M53,92.1c0,0-9.9-4.8-7.5,7.3c2.4,12,9.6,10.3,9.6,10.3L53,92.1z"/>
			<path id="ear_34_" class="st3" d="M104.2,92.1c0,0,9.9-4.8,7.5,7.3c-2.4,12-9.6,10.3-9.6,10.3L104.2,92.1z"/>
			<g>
				<g>
					<g>
						<path class="st7" d="M83.9,102.8c0.5,2,3.6,2.5,5.5,2.4c1.5-0.1,4-0.9,4.1-2.1c0.2-1.9-5-5.5-7.9-3.8
							C84.4,99.9,83.5,101.5,83.9,102.8z"/>
						<path class="st7" d="M83.9,102.3c0.5,2,3.6,2.5,5.5,2.4c1.5-0.1,4-0.9,4.1-2.1c0.2-1.9-5-5.5-7.9-3.8
							C84.4,99.4,83.5,101,83.9,102.3z"/>
						<path class="st3" d="M94.1,99.8c0.1-0.1-1.6-2.9-4.8-3.5c-2.1-0.4-3.9,0.4-4.7,0.8c1.1-0.4,2.6-0.7,4.2-0.4
							C92,97.2,94,99.9,94.1,99.8z"/>
					</g>
					<path class="st1" d="M83.9,102.5c0.5,2,3.6,2.5,5.5,2.4c1.5-0.1,4-0.9,4.1-2.1c0.2-1.9-5-5.5-7.9-3.8
						C84.4,99.6,83.5,101.2,83.9,102.5z"/>
				</g>
				<g>
					<defs>
						<path id="SVGID_1_" d="M83.9,102.5c0.5,2,3.6,2.5,5.5,2.4c1.5-0.1,4-0.9,4.1-2.1c0.2-1.9-5-5.5-7.9-3.8
							C84.4,99.6,83.5,101.2,83.9,102.5z"/>
					</defs>
					<clipPath id="SVGID_2_">
						<use xlink:href="#SVGID_1_"  style="overflow:visible;"/>
					</clipPath>
					<g class="st8">
						<circle class="st9" cx="88.6" cy="101.2" r="2.8"/>
						<circle class="st7" cx="88.6" cy="101.2" r="1.5"/>
						<path class="st1" d="M89.4,100.6c0.1,0.2,0.1,0.5,0,0.5c-0.1,0-0.1-0.2-0.2-0.3c-0.2-0.2-0.5-0.2-0.5-0.3
							c0-0.1,0.3-0.2,0.5-0.1C89.4,100.4,89.4,100.5,89.4,100.6z"/>
					</g>
				</g>
			</g>
			<g>
				<g>
					<g>
						<path class="st7" d="M73.9,102.8c-0.5,2-3.6,2.5-5.5,2.4c-1.5-0.1-4-0.9-4.1-2.1c-0.2-1.9,5-5.5,7.9-3.8
							C73.4,99.9,74.2,101.5,73.9,102.8z"/>
						<path class="st7" d="M73.9,102.3c-0.5,2-3.6,2.5-5.5,2.4c-1.5-0.1-4-0.9-4.1-2.1c-0.2-1.9,5-5.5,7.9-3.8
							C73.4,99.4,74.2,101,73.9,102.3z"/>
						<g>
							<path class="st7" d="M63.7,98.7c-0.1,0.2,1.6-3,4.8-4.2c2.2-0.5,4,1,4.7,1.5c-1.1-0.5-2.6-1.3-4.2-1
								C65.7,96.2,63.8,99.2,63.7,98.7z"/>
						</g>
					</g>
					<path class="st1" d="M73.9,102.5c-0.5,2-3.6,2.5-5.5,2.4c-1.5-0.1-4-0.9-4.1-2.1c-0.2-1.9,5-5.5,7.9-3.8
						C73.4,99.6,74.2,101.2,73.9,102.5z"/>
				</g>
				<g>
					<defs>
						<path id="SVGID_3_" d="M73.9,102.5c-0.5,2-3.6,2.5-5.5,2.4c-1.5-0.1-4-0.9-4.1-2.1c-0.2-1.9,5-5.5,7.9-3.8
							C73.4,99.6,74.2,101.2,73.9,102.5z"/>
					</defs>
					<clipPath id="SVGID_4_">
						<use xlink:href="#SVGID_3_"  style="overflow:visible;"/>
					</clipPath>
					<g class="st10">
						<circle class="st9" cx="69.1" cy="101.2" r="2.8"/>
						<circle class="st7" cx="69.1" cy="101.2" r="1.5"/>
						<path class="st1" d="M69.9,100.6c0.1,0.2,0.1,0.5,0,0.5c-0.1,0-0.1-0.2-0.2-0.3c-0.2-0.2-0.5-0.2-0.5-0.3
							c0-0.1,0.3-0.2,0.5-0.1C69.8,100.4,69.8,100.5,69.9,100.6z"/>
					</g>
				</g>
			</g>
			<linearGradient id="SVGID_5_" gradientUnits="userSpaceOnUse" x1="74.1326" y1="105.692" x2="81.6326" y2="112.0253">
				<stop  offset="8.071588e-03" style="stop-color:#FEE7B8"/>
				<stop  offset="0.2811" style="stop-color:#FEE8BD"/>
				<stop  offset="0.63" style="stop-color:#FDEAC9"/>
				<stop  offset="1" style="stop-color:#FDEEDC"/>
			</linearGradient>
			<path class="st11" d="M74,114.2c-0.3-1,0.4-2,0.6-2.4c2.6-4.4,2.5-11.5,3.8-11.4c1.3,0,0.9,7.1,3.6,11.5c0.2,0.4,0.9,1.5,0.6,2.5
				c-0.2,0.8-1,1.2-2.2,1.9c-0.9,0.5-1.3,0.8-2,0.8c-0.9,0.1-1.6-0.3-2.4-0.8C75,115.5,74.2,115.1,74,114.2z"/>
			<path class="st1" d="M74.1,122.9c0,0-0.2-0.3,0.1-0.4c0.3-0.1,1.3-0.6,1.3-0.6c0.5,0.4,1.4,0.8,2.5,0.4c0.4-0.2,0.8-0.4,1.1-0.7
				c0.9,0.3,1.7,0.5,2.6,0.8c0,0,0.3,0.1,0.2,0.4c-0.1,0.3-0.9,1.7-0.9,1.7l-2.6,2.2l-2.4-0.9l-1.3-1.7L74.1,122.9z"/>
			<g>
				<g>
					<path class="st12" d="M83.9,123.8c-0.2-0.4-1-1.8-2.4-2.3c-1.6-0.6-2.8,0.3-3.1,0.5c-0.2-0.2-1.5-1.2-3.1-0.5
						c-1.3,0.5-1.9,1.8-2.1,2.2c2.3,1.8,3.4,1.7,3.9,1.1c0.6-0.6,0.7-1.8,1.4-1.9c0.5-0.1,0.8,0.6,1.2,1
						C80.3,124.7,81.5,125.1,83.9,123.8z"/>
					<path class="st13" d="M78.6,125.4c-0.4,0.1-0.7-0.3-1.6-0.9c0,0-0.2-0.1-0.7-0.4c-0.5-0.2-1.5-0.5-3-0.4c0.4,0.6,2.3,3,5.2,3.1
						c3.1,0.1,5.2-2.4,5.5-3c-3.4-0.1-4.5,0.5-4.8,1C79,125,78.9,125.3,78.6,125.4z"/>
				</g>
			</g>
		</g>
		<path id="_x36__10_" class="st7" d="M69.6,31.1c0,0-22.2,12.8,16.3,41.4c38.5,28.6,68-8,68-8s-7.1,6.9-14.6,2.5
			c0,0,12-1.7,11.7-12.6c0,0-33.1,19.3-47.4-4.3C89.1,26.4,77.6,27.3,69.6,31.1z"/>
		<circle id="_x35__18_" class="st2" cx="79.3" cy="47.7" r="5.3"/>
		<path id="_x34__27_" class="st7" d="M78.4,47.4c-51.9,0-28.3,52.3-28.3,52.3c13.2-0.8,18.4-11.2,20.3-17.2
			c7.6,8.3,21.8,20.7,36.3,17.2C106.7,99.7,130.2,47.4,78.4,47.4z"/>
		<path id="_x33__27_" class="st14" d="M65.7,65.9c0,0,4.5,43.8,40.9,33.8C106.7,99.7,73.1,90.3,65.7,65.9z"/>
		<path id="_x32__19_" class="st14" d="M62.9,65.7c0,0-12,26.5-21.8,25.4C41.1,91.2,64.4,102.3,62.9,65.7z"/>
		<path id="_x31__19_" class="st14" d="M76.9,53.5c19.9,2.8,34.4,11.2,35.1,24.1c0.7-14.3-4.9-30.2-33.6-30.2s-34.3,16-33.6,30.2
			C45.5,64.7,51.4,49.9,76.9,53.5z"/>
		<path class="st15" d="M65.2,112.9c0.1-0.1,3,1.5,3.8,4.6c0.5,2.1-0.2,3.9-0.6,4.8c0.3-1.1,0.6-2.6,0.2-4.2
			C67.8,114.8,65.1,113,65.2,112.9z"/>
		<path class="st15" d="M91.4,113.3c-0.1-0.1-3.1,1.4-3.9,4.5c-0.6,2.1,0.1,4,0.4,4.8c-0.3-1.1-0.5-2.6-0.1-4.2
			C88.6,115,91.5,113.4,91.4,113.3z"/>
	</g>
	<g>
		<path class="st16" d="M65.5,53.8c-0.4,0.4-0.4,1.1,0,1.5c0,0,8.7,9.6,18.6,14.3c7.6,3.5,18,4.9,18,4.9c0.5,0.1,1.1-0.3,1.1-0.9
			l10.5-70.3c0.1-0.5-0.2-0.7-0.5-0.3L65.5,53.8z"/>
	</g>
	<circle class="st1" cx="93.5" cy="58.7" r="5.8"/>
	<path class="st1" d="M101.3,25.6c0,3.1-2.7,5.8-5.8,5.8c-2.3,0-4.5-1.5-5.4-3.8c2.3-2.5,4.7-5,7-7.5
		C99.6,20.9,101.3,23.2,101.3,25.6z"/>
	<circle class="st1" cx="87.7" cy="41.7" r="4.1"/>
	<circle class="st1" cx="102.7" cy="40.2" r="3.5"/>
	<circle class="st1" cx="75.7" cy="55.2" r="4.4"/>
	<path class="st17" d="M77.5,123.2c0.1-0.1,0.7-0.3,1.4-0.2c0.7,0.2,1.1,0.7,1.2,0.8c-0.8,2-1.6,4-2.4,6c-0.1-0.1-0.3-0.6-0.9-0.8
		c-0.8-0.3-1.5,0.2-1.5,0.3C75.9,127.3,76.7,125.3,77.5,123.2z"/>
	<linearGradient id="SVGID_6_" gradientUnits="userSpaceOnUse" x1="72.8922" y1="137.0154" x2="61.9755" y2="155.0987">
		<stop  offset="0" style="stop-color:#99C55D"/>
		<stop  offset="1" style="stop-color:#006633"/>
	</linearGradient>
	<path class="st18" d="M75.1,129.3l-15.8,25.4l4.3,2.3l14-27.1C77.6,129.9,76.9,128.3,75.1,129.3z"/>
	<linearGradient id="SVGID_7_" gradientUnits="userSpaceOnUse" x1="60.7862" y1="156.8171" x2="64.5987" y2="151.0046">
		<stop  offset="0" style="stop-color:#99C55D"/>
		<stop  offset="1" style="stop-color:#006633"/>
	</linearGradient>
	<path class="st19" d="M58.6,155.2c-0.4-0.3-0.6-0.5-0.8-0.9c-0.3-0.9,0.3-2.2,1-2.3c0.2,0,0.4,0.1,0.4,0.1c1.3,0.9,5.9,3.2,6.5,3.5
		c0.1,0,0.3,0.1,0.4,0.3c0.3,0.7-0.6,2-1.6,2.2c-0.4,0.1-0.7-0.1-1-0.2C61.5,157.1,60.2,156.4,58.6,155.2z"/>
	<pattern  id="SVGID_8_" xlink:href="#New_Pattern" patternTransform="matrix(1 0 0 1 -266.3333 31.0592)">
	</pattern>
	<path class="st20" d="M113.6,2.9c1,0.4,2.5,1.2,3.7,2.9c2.3,3.5,1.1,7.7,2.1,12.9c0.5,2.7,1.8,6.5,5.3,10.6"/>
	<pattern  id="SVGID_9_" xlink:href="#New_Pattern" patternTransform="matrix(1 0 0 1 -266.3333 31.0592)">
	</pattern>
	<path class="st21" d="M113.6,2.9c0.9,0.7,2.2,1.9,3,3.9c1.6,4.1-0.4,7.8-0.3,13.2c0,2.8,0.5,6.8,3.2,11.8"/>
	<pattern  id="SVGID_10_" xlink:href="#New_Pattern" patternTransform="matrix(1 0 0 1 -266.3333 31.0592)">
	</pattern>
	<path class="st22" d="M113.6,2.9c0.8,0.9,1.8,2.5,2.2,4.7c0.8,4.5-1.8,7.5-2.7,12.7c-0.5,2.7-0.7,6.8,1,12.5"/>
	<path class="st23" d="M64.8,54.5c0,0-20.9,9.3-8.3,63.7"/>
	<pattern  id="SVGID_11_" xlink:href="#New_Pattern" patternTransform="matrix(1 0 0 1 -266.3333 31.0592)">
	</pattern>
	<path class="st24" d="M103,74.5c0,0-0.2,41.5-5.6,49.5"/>
	<polygon class="st12" points="32.3,108.9 25,108 21.8,114.7 20.4,107.4 13.1,106.5 19.6,102.9 18.2,95.6 23.6,100.7 30.1,97.1 
		26.9,103.8 	"/>
	<polygon class="st25" points="156.2,128.7 144.1,127.1 138.9,138.1 136.7,126.2 124.6,124.7 135.2,118.8 133,106.9 141.8,115.2 
		152.5,109.3 147.3,120.3 	"/>
	<polygon class="st2" points="26.2,145.6 17.9,144.5 14.3,152.1 12.8,143.9 4.5,142.9 11.8,138.8 10.2,130.6 16.3,136.3 23.6,132.3 
		20.1,139.9 	"/>
</g>
</svg>
