<?xml version="1.0" encoding="utf-8"?>
<!-- Generator: Adobe Illustrator 20.0.0, SVG Export Plug-In . SVG Version: 6.00 Build 0)  -->
<svg version="1.0" id="Layer_1" xmlns="http://www.w3.org/2000/svg" xmlns:xlink="http://www.w3.org/1999/xlink" x="0px" y="0px"
	 viewBox="0 0 160 200" style="enable-background:new 0 0 160 200;" xml:space="preserve">
<style type="text/css">
	.st0{fill:#F6BE34;}
	.st1{fill:#FCE5AE;}
	.st2{fill:#DFC996;}
	.st3{fill:#FFD14D;}
	.st4{fill:#FFEDC1;}
	.st5{fill:#494C56;}
	.st6{fill:#FFFFFF;}
	.st7{clip-path:url(#SVGID_2_);}
	.st8{fill:#90641A;}
	.st9{fill:#D51123;}
	.st10{fill:#E1354A;}
	.st11{clip-path:url(#SVGID_4_);}
	.st12{fill:url(#SVGID_5_);}
	.st13{fill:#6B707B;}
	.st14{fill:#FEE7B8;}
</style>
<g>
	<g>
		<path id="_x34__20_" class="st0" d="M122.3,147.3c-3.2-2.8-8.4-6.3-13.4-6.8c-1.2-0.1-6.6-1.5-12.9-3.2c-0.3-0.1-0.6-0.2-0.9-0.3
			c0,0,0,0,0,0c-0.4-0.1-0.8-0.2-1.2-0.3c-3.9-1.1-8-2.2-11.6-3.2c-0.1,0-0.2,0-0.2-0.1c-0.2-0.1-0.4-0.1-0.6-0.2
			c-0.1,0-0.2-0.1-0.3-0.1c-0.2,0-0.4-0.1-0.5-0.1c-0.1,0-0.2-0.1-0.3-0.1c-0.2,0-0.3-0.1-0.5-0.1c-0.3-0.1-0.6-0.2-0.9-0.2
			c-0.1,0-0.1,0-0.2,0c-0.1,0-0.2-0.1-0.3-0.1c-0.2,0-0.3-0.1-0.5-0.1c-2.4-0.7-4.3-1.2-5.4-1.5c0,0,0,0,0,0
			c-0.2-0.1-0.3-0.1-0.5-0.1c0,0-0.1,0-0.1,0c-0.1,0-0.2-0.1-0.3-0.1c-0.1,0-0.2-0.1-0.2-0.1s-0.1,0-0.3,0.1c0,0,0,0,0,0
			c0,0-0.1,0-0.1,0c0,0-0.1,0-0.1,0c-0.1,0-0.1,0-0.2,0.1c-0.1,0-0.2,0.1-0.4,0.1c-0.1,0-0.1,0-0.2,0c0,0-0.1,0-0.1,0
			c-0.2,0.1-0.4,0.1-0.6,0.2c0,0-0.1,0-0.2,0c0,0,0,0,0,0c-0.1,0-0.3,0.1-0.5,0.1c-0.1,0-0.1,0-0.2,0.1c-0.1,0-0.1,0-0.2,0.1
			c0,0,0,0-0.1,0c0,0,0,0,0,0c-0.1,0-0.3,0.1-0.4,0.1c0,0,0,0,0,0c0,0,0,0-0.1,0c0,0-0.1,0-0.1,0c-0.1,0-0.2,0-0.2,0.1
			c-0.4,0.1-0.9,0.2-1.4,0.4c-0.1,0-0.1,0-0.2,0.1c-0.2,0-0.3,0.1-0.5,0.1c0,0-0.1,0-0.1,0c-0.2,0-0.3,0.1-0.5,0.1
			c-0.1,0-0.2,0.1-0.3,0.1c-0.1,0-0.3,0.1-0.4,0.1c-0.1,0-0.2,0-0.3,0.1c-0.3,0.1-0.5,0.1-0.8,0.2c-0.2,0-0.3,0.1-0.5,0.1
			c-0.1,0-0.2,0.1-0.3,0.1c-0.2,0.1-0.4,0.1-0.5,0.2c-0.1,0-0.2,0.1-0.4,0.1c-0.2,0-0.3,0.1-0.5,0.1c-0.1,0-0.2,0.1-0.4,0.1
			c-0.1,0-0.2,0.1-0.4,0.1c-0.1,0-0.1,0-0.2,0.1c0,0,0,0,0,0c-0.1,0-0.2,0.1-0.3,0.1c-0.1,0-0.3,0.1-0.4,0.1c0,0,0,0-0.1,0
			c-0.1,0-0.2,0.1-0.4,0.1c-0.1,0-0.2,0.1-0.3,0.1c-0.2,0.1-0.5,0.1-0.7,0.2c-0.1,0-0.2,0.1-0.3,0.1c-0.2,0.1-0.4,0.1-0.6,0.2
			c-0.1,0-0.2,0.1-0.4,0.1c-0.2,0.1-0.5,0.1-0.7,0.2c-0.1,0-0.2,0.1-0.3,0.1c-0.1,0-0.1,0-0.2,0c0,0,0,0,0,0
			c-0.2,0.1-0.4,0.1-0.6,0.2c-0.1,0-0.3,0.1-0.4,0.1c-0.2,0.1-0.4,0.1-0.6,0.2c-0.1,0-0.3,0.1-0.4,0.1c-0.2,0.1-0.4,0.1-0.6,0.2
			c-0.1,0-0.3,0.1-0.4,0.1c-0.3,0.1-0.6,0.2-0.8,0.2c0,0-0.1,0-0.1,0c-0.3,0.1-0.6,0.2-1,0.3c-0.1,0-0.2,0.1-0.3,0.1
			c-0.2,0.1-0.4,0.1-0.6,0.2c0,0,0,0,0,0c-0.1,0-0.2,0.1-0.4,0.1c-0.2,0-0.4,0.1-0.5,0.1c-0.1,0-0.3,0.1-0.4,0.1
			c-0.2,0.1-0.4,0.1-0.7,0.2c-6.6,1.8-12.3,3.3-13.5,3.4c-4.9,0.5-10.2,4.1-13.4,6.8c-5.8,5-4.7,11.1-6.4,16.6
			c15.3,13.3,35.3,21.4,57.2,21.4s41.9-8.1,57.2-21.4C127,158.4,128.1,152.3,122.3,147.3z"/>
		<path id="_x33__20_" class="st1" d="M71.5,96.5L53,94.1l7.1,38.7c4.9,3.4,6.6,7,7.3,8.9c0.8,2.2,1.2,5.1,1.3,6.1
			c0.4,3,0.3,3.9,0.7,6.5c0.1,0.8,1.1,6.1,2.1,6.1c1.1,0-0.3-7.8,3.7-16.3c2.6-5.4,7.5-11.3,7.5-11.3l0,0l7.1-38.7L71.5,96.5z"/>
		<path id="_x32__14_" class="st2" d="M86.3,100.6L56,110l3.1,16.8c4.6,5.7,11.7,11,22.2,11.4c1.2-2.9,1.5-5.5,1.5-5.5L88,104
			C87,101.9,86.3,100.6,86.3,100.6z"/>
		<path id="_x31__14_" class="st3" d="M89,134.7l-4.5-6.3c-3.8,4.1-7.8,8.3-11.6,12.4c0.3,1.1,0.6,2.8,0.3,4.8
			c-0.2,2.1-0.9,2.8-1.5,4.9c-1,4.1,0.1,7.1-0.2,7.1c-0.4,0.1-2.2-4.3-2.2-9.6c0-2.9,0.5-5.4,1-7c-3.8-4.2-7.6-8.5-11.3-12.7
			l-3.9,6.3c-0.5,0.5,0,1.4,0,1.4s5.9,13,6.1,14.8c0.2,1.7,1.3,1,1.3,1s4-5.7,5-6.1c0.8-0.3,0.7,1,0.7,1L69,166h4.9l0.9-19.3
			c0,0-0.1-1.1,0.7-0.8c1,0.4,5,6,5,6s1.6,0.7,1.8-1c0.2-1.7,6.7-14.8,6.7-14.8C89,135.6,89,135.2,89,134.7z"/>
		<path id="face_12_" class="st4" d="M71.5,58.8H44c0,0,2.1,37.6,4.8,45.4c3.1,8.8,6.2,10.9,13.2,16.3c5.8,4.6,9.5,4,9.5,4
			s3.6,0.6,9.5-4c7-5.5,10.6-7.6,13.6-16.3c2.7-7.8,4.4-45.4,4.4-45.4H71.5z"/>
		<path id="ear_27_" class="st1" d="M46.1,80.2c0,0-9.9-4.8-7.5,7.3c2.4,12,9.6,10.3,9.6,10.3L46.1,80.2z"/>
		<path id="ear_22_" class="st1" d="M97.3,80.2c0,0,9.9-4.8,7.5,7.3c-2.4,12-9.6,10.3-9.6,10.3L97.3,80.2z"/>
		<g>
			<g>
				<g>
					<path class="st5" d="M76.9,90.8c0.5,2,3.6,2.5,5.5,2.4c1.5-0.1,4-0.9,4.1-2.1c0.2-1.9-5-5.5-7.9-3.8
						C77.5,88,76.6,89.5,76.9,90.8z"/>
					<path class="st5" d="M76.9,90.3c0.5,2,3.6,2.5,5.5,2.4c1.5-0.1,4-0.9,4.1-2.1c0.2-1.9-5-5.5-7.9-3.8
						C77.5,87.5,76.6,89,76.9,90.3z"/>
					<path class="st1" d="M87.1,87.9c0.1-0.1-1.6-2.9-4.8-3.5c-2.1-0.4-3.9,0.4-4.7,0.8c1.1-0.4,2.6-0.7,4.2-0.4
						C85.1,85.3,87.1,88,87.1,87.9z"/>
				</g>
				<path class="st6" d="M76.9,90.6c0.5,2,3.6,2.5,5.5,2.4c1.5-0.1,4-0.9,4.1-2.1c0.2-1.9-5-5.5-7.9-3.8
					C77.5,87.7,76.6,89.3,76.9,90.6z"/>
			</g>
			<g>
				<defs>
					<path id="SVGID_1_" d="M76.9,90.6c0.5,2,3.6,2.5,5.5,2.4c1.5-0.1,4-0.9,4.1-2.1c0.2-1.9-5-5.5-7.9-3.8
						C77.5,87.7,76.6,89.3,76.9,90.6z"/>
				</defs>
				<clipPath id="SVGID_2_">
					<use xlink:href="#SVGID_1_"  style="overflow:visible;"/>
				</clipPath>
				<g class="st7">
					<circle class="st8" cx="81.7" cy="89.3" r="2.8"/>
					<circle class="st5" cx="81.7" cy="89.3" r="1.5"/>
					<path class="st6" d="M82.5,88.6c0.1,0.2,0.1,0.5,0,0.5c-0.1,0-0.1-0.2-0.2-0.3c-0.2-0.2-0.5-0.2-0.5-0.3c0-0.1,0.3-0.2,0.5-0.1
						C82.4,88.4,82.5,88.6,82.5,88.6z"/>
				</g>
			</g>
		</g>
		<g>
			<g>
				<path class="st9" d="M75.1,112.5c3.5-0.6,5.8-1.7,5.8-1.7c0-0.1-1,0.5-2.4,0.4c-1.3,0-1.8-0.5-2.7-0.8c-0.9-0.2-2.3-0.3-4.4,0.5
					c-2.1-0.8-3.5-0.7-4.4-0.5c-0.9,0.3-1.4,0.8-2.7,0.8c-1.3,0-2.4-0.5-2.4-0.4c2.3,1,4.3,1.5,6,1.8
					C69,112.7,71.7,113.1,75.1,112.5z"/>
				<path class="st10" d="M76.5,112.3c-2.1,0.5-3.9,0.6-5.2,0.6c-1.3,0-3.1-0.1-5.2-0.6c-2.5-0.6-4.4-1.4-4.4-1.5
					c1.5,1.2,4.9,3.5,9.4,3.5c4.7,0,8.1-2.3,9.7-3.5C80.9,110.9,79,111.7,76.5,112.3z"/>
				<path class="st10" d="M71.4,112.8c1.3,0,3.1-0.1,5.2-0.6c2.5-0.6,4.4-1.4,4.4-1.5c0,0-2.2,1.1-5.8,1.7c-3.5,0.6-6.1,0.2-7.2,0.1
					c-1.7-0.3-3.7-0.8-6-1.8c0,0.1,1.9,0.9,4.4,1.5C68.3,112.7,70.1,112.8,71.4,112.8z"/>
			</g>
		</g>
		<g>
			<g>
				<g>
					<path class="st5" d="M67,90.8c-0.5,2-3.6,2.5-5.5,2.4c-1.5-0.1-4-0.9-4.1-2.1c-0.2-1.9,5-5.5,7.9-3.8
						C66.4,88,67.3,89.5,67,90.8z"/>
					<path class="st5" d="M67,90.3c-0.5,2-3.6,2.5-5.5,2.4c-1.5-0.1-4-0.9-4.1-2.1c-0.2-1.9,5-5.5,7.9-3.8
						C66.4,87.5,67.3,89,67,90.3z"/>
					<path class="st5" d="M56.8,87.9c-0.1-0.1,1.6-2.9,4.8-3.5c2.1-0.4,3.9,0.4,4.7,0.8c-1.1-0.4-2.6-0.7-4.2-0.4
						C58.8,85.3,56.9,88,56.8,87.9z"/>
				</g>
				<path class="st6" d="M67,90.6c-0.5,2-3.6,2.5-5.5,2.4c-1.5-0.1-4-0.9-4.1-2.1c-0.2-1.9,5-5.5,7.9-3.8
					C66.4,87.7,67.3,89.3,67,90.6z"/>
			</g>
			<g>
				<defs>
					<path id="SVGID_3_" d="M67,90.6c-0.5,2-3.6,2.5-5.5,2.4c-1.5-0.1-4-0.9-4.1-2.1c-0.2-1.9,5-5.5,7.9-3.8
						C66.4,87.7,67.3,89.3,67,90.6z"/>
				</defs>
				<clipPath id="SVGID_4_">
					<use xlink:href="#SVGID_3_"  style="overflow:visible;"/>
				</clipPath>
				<g class="st11">
					<circle class="st8" cx="62.2" cy="89.3" r="2.8"/>
					<circle class="st5" cx="62.2" cy="89.3" r="1.5"/>
					<path class="st6" d="M62.9,88.6c0.1,0.2,0.1,0.5,0,0.5c-0.1,0-0.1-0.2-0.2-0.3c-0.2-0.2-0.5-0.2-0.5-0.3c0-0.1,0.3-0.2,0.5-0.1
						C62.8,88.4,62.9,88.6,62.9,88.6z"/>
				</g>
			</g>
		</g>
		<linearGradient id="SVGID_5_" gradientUnits="userSpaceOnUse" x1="67.2081" y1="93.7627" x2="74.7081" y2="100.0961">
			<stop  offset="8.071588e-03" style="stop-color:#FEE7B8"/>
			<stop  offset="0.2811" style="stop-color:#FEE8BD"/>
			<stop  offset="0.63" style="stop-color:#FDEAC9"/>
			<stop  offset="1" style="stop-color:#FDEEDC"/>
		</linearGradient>
		<path class="st12" d="M67,102.3c-0.3-1,0.4-2,0.6-2.4c2.6-4.4,2.5-11.5,3.8-11.4c1.3,0,0.9,7.1,3.6,11.5c0.2,0.4,0.9,1.5,0.6,2.5
			c-0.2,0.8-1,1.2-2.2,1.9c-0.9,0.5-1.3,0.8-2,0.8c-0.9,0.1-1.6-0.3-2.4-0.8C68.1,103.6,67.3,103.1,67,102.3z"/>
	</g>
	<path id="_x36__7_" class="st5" d="M62.7,19.2c0,0-22.2,12.8,16.3,41.4c38.5,28.6,68-8,68-8s-7.1,6.9-14.6,2.5
		c0,0,12-1.7,11.7-12.6c0,0-33.1,19.3-47.4-4.3C82.2,14.5,70.7,15.4,62.7,19.2z"/>
	<circle id="_x35__12_" class="st0" cx="72.4" cy="35.8" r="5.3"/>
	<path id="_x34__18_" class="st5" d="M71.5,35.5c-51.9,0-28.3,52.3-28.3,52.3C56.3,87,61.6,76.5,63.5,70.6
		c7.6,8.3,21.8,20.7,36.3,17.2C99.8,87.8,123.3,35.5,71.5,35.5z"/>
	<path id="_x33__18_" class="st13" d="M58.8,54c0,0,4.5,43.8,40.9,33.8C99.8,87.8,66.2,78.4,58.8,54z"/>
	<path id="_x32__13_" class="st13" d="M56,53.8c0,0-12,26.5-21.8,25.4C34.2,79.2,57.5,90.4,56,53.8z"/>
	<path id="_x31__13_" class="st13" d="M69.9,41.6c19.9,2.8,34.4,11.2,35.1,24.1c0.7-14.3-4.9-30.2-33.6-30.2s-34.3,16-33.6,30.2
		C38.5,52.8,44.4,38,69.9,41.6z"/>
	<path class="st14" d="M57.9,109.6c-0.1,0,0.1-3.4,2.6-5.3c1.7-1.3,3.7-1.4,4.6-1.4c-1.2,0.2-2.6,0.5-4,1.5
		C58.6,106.4,58,109.6,57.9,109.6z"/>
	<path class="st14" d="M85,109.6c0.1,0-0.1-3.4-2.6-5.3c-1.7-1.3-3.7-1.4-4.6-1.4c1.2,0.2,2.6,0.5,4,1.5
		C84.3,106.4,84.9,109.6,85,109.6z"/>
</g>
</svg>
