<?xml version="1.0" encoding="utf-8"?>
<!-- Generator: Adobe Illustrator 20.0.0, SVG Export Plug-In . SVG Version: 6.00 Build 0)  -->
<svg version="1.0" id="Layer_1" xmlns="http://www.w3.org/2000/svg" xmlns:xlink="http://www.w3.org/1999/xlink" x="0px" y="0px"
	 viewBox="0 0 200 200" style="enable-background:new 0 0 200 200;" xml:space="preserve">
<style type="text/css">
	.st0{fill:#FFFFFF;}
</style>
<g>
	<path class="st0" d="M103.5,10.1v1.5c0,0.5-0.1,1.1-0.2,1.5c-0.1,0.5-0.3,0.9-0.6,1.3c-0.3,0.4-0.6,0.6-1,0.9
		c-0.4,0.2-0.9,0.3-1.5,0.3c-0.7,0-1.2-0.1-1.7-0.3c-0.5-0.2-0.8-0.5-1.1-0.9c-0.3-0.4-0.5-0.8-0.6-1.3c-0.1-0.5-0.2-1.1-0.2-1.7
		v-1.4H103.5z"/>
	<path class="st0" d="M117,0v7.5c0,8.8-6.6,16-15.2,16.9h0c-0.6,0.1-1.2,0.1-1.8,0.1c-0.6,0-1.2,0-1.9-0.1C89.6,23.5,83,16.3,83,7.5
		V0h6v0.8l-2.5,1v2.9L97.4,0h5.2l10.9,4.7V1.8l-2.5-1V0H117z M105.9,7.5H94.1v4.2c0,0.9,0.1,1.7,0.4,2.5c0.3,0.8,0.6,1.5,1.1,2.1
		c0.5,0.6,1.1,1.1,1.8,1.5c0.7,0.4,1.6,0.5,2.5,0.5c1.1,0,2-0.2,2.7-0.6c0.8-0.4,1.4-0.9,1.8-1.5c0.5-0.6,0.8-1.4,1-2.2
		c0.2-0.9,0.3-1.7,0.3-2.7V7.5z"/>
</g>
<g>
	<path class="st0" d="M94.8,198.5l-3.6,1.4v-2.9L94.8,198.5z M108.8,197.1v2.9l-3.6-1.4L108.8,197.1z M108.8,197.1v2.9l-3.6-1.4
		L108.8,197.1z M94.8,198.5l-3.6,1.4v-2.9L94.8,198.5z M94.8,198.5l-3.6,1.4v-2.9L94.8,198.5z M108.8,197.1v2.9l-3.6-1.4
		L108.8,197.1z M108.8,197.1v2.9l-3.6-1.4L108.8,197.1z M94.8,198.5l-3.6,1.4v-2.9L94.8,198.5z M94.8,198.5l-3.6,1.4v-2.9
		L94.8,198.5z M108.8,197.1v2.9l-3.6-1.4L108.8,197.1z M108.8,197.1v2.9l-3.6-1.4L108.8,197.1z M94.8,198.5l-3.6,1.4v-2.9
		L94.8,198.5z M94.8,198.5l-3.6,1.4v-2.9L94.8,198.5z M108.8,197.1v2.9l-3.6-1.4L108.8,197.1z M108.8,197.1v2.9l-3.6-1.4
		L108.8,197.1z M94.8,198.5l-3.6,1.4v-2.9L94.8,198.5z M94.8,198.5l-3.6,1.4v-2.9L94.8,198.5z M108.8,197.1v2.9l-3.6-1.4
		L108.8,197.1z M108.8,197.1v2.9l-3.6-1.4L108.8,197.1z M94.8,198.5l-3.6,1.4v-2.9L94.8,198.5z M94.8,198.5l-3.6,1.4v-2.9
		L94.8,198.5z M108.8,197.1v2.9l-3.6-1.4L108.8,197.1z M108.8,197.1v2.9l-3.6-1.4L108.8,197.1z M94.8,198.5l-3.6,1.4v-2.9
		L94.8,198.5z M94.8,198.5l-3.6,1.4v-2.9L94.8,198.5z M108.8,197.1v2.9l-3.6-1.4L108.8,197.1z M117,189.9V200H111v-3.7l2.5-1v-2.8
		l-11.7,5.1v2.1l0.8,0.4h-5.2l0.8-0.4v-2.1l-11.7-5.1v2.8l2.5,1v3.7h-6v-10.1H117z M94.8,198.5l-3.6,1.4v-2.9L94.8,198.5z
		 M108.8,197.1v2.9l-3.6-1.4L108.8,197.1z M108.8,197.1v2.9l-3.6-1.4L108.8,197.1z M94.8,198.5l-3.6,1.4v-2.9L94.8,198.5z
		 M94.8,198.5l-3.6,1.4v-2.9L94.8,198.5z M108.8,197.1v2.9l-3.6-1.4L108.8,197.1z M108.8,197.1v2.9l-3.6-1.4L108.8,197.1z
		 M94.8,198.5l-3.6,1.4v-2.9L94.8,198.5z M94.8,198.5l-3.6,1.4v-2.9L94.8,198.5z M108.8,197.1v2.9l-3.6-1.4L108.8,197.1z
		 M108.8,197.1v2.9l-3.6-1.4L108.8,197.1z M94.8,198.5l-3.6,1.4v-2.9L94.8,198.5z M94.8,198.5l-3.6,1.4v-2.9L94.8,198.5z
		 M108.8,197.1v2.9l-3.6-1.4L108.8,197.1z M108.8,197.1v2.9l-3.6-1.4L108.8,197.1z M94.8,198.5l-3.6,1.4v-2.9L94.8,198.5z
		 M94.8,198.5l-3.6,1.4v-2.9L94.8,198.5z M108.8,197.1v2.9l-3.6-1.4L108.8,197.1z M108.8,197.1v2.9l-3.6-1.4L108.8,197.1z
		 M94.8,198.5l-3.6,1.4v-2.9L94.8,198.5z M94.8,198.5l-3.6,1.4v-2.9L94.8,198.5z M108.8,197.1v2.9l-3.6-1.4L108.8,197.1z
		 M108.8,197.1v2.9l-3.6-1.4L108.8,197.1z M94.8,198.5l-3.6,1.4v-2.9L94.8,198.5z M108.8,197.1v2.9l-3.6-1.4L108.8,197.1z
		 M108.8,197.1v2.9l-3.6-1.4L108.8,197.1z"/>
	<g>
		<path class="st0" d="M113.4,175.5v11.8h-3.4l-5.1-8.4h0v8.4h-2.6v-11.8h3.5l5,8.2h0v-8.2H113.4z"/>
		<path class="st0" d="M99.8,175.5v11.8h-2.6v-9h0l-3.1,9h-2l-3-9h0v9h-2.6v-11.8h3.9l2.7,7.7h0l2.7-7.7H99.8z"/>
	</g>
</g>
<g>
	<path class="st0" d="M200,110.3v5.5c-0.6,0-1-0.1-1.4-0.3c-0.5-0.2-0.8-0.5-1.1-0.9c-0.3-0.4-0.5-0.8-0.6-1.3
		c-0.1-0.5-0.2-1.1-0.2-1.7v-1.3H200z"/>
	<path class="st0" d="M195,98.7l-3.6,1.4v-2.9L195,98.7z M195,98.7l-3.6,1.4v-2.9L195,98.7z M195,98.7l-3.6,1.4v-2.9L195,98.7z
		 M195,98.7l-3.6,1.4v-2.9L195,98.7z M195,98.7l-3.6,1.4v-2.9L195,98.7z M195,98.7l-3.6,1.4v-2.9L195,98.7z M195,98.7l-3.6,1.4v-2.9
		L195,98.7z M195,98.7l-3.6,1.4v-2.9L195,98.7z M195,98.7l-3.6,1.4v-2.9L195,98.7z M195,98.7l-3.6,1.4v-2.9L195,98.7z M195,98.7
		l-3.6,1.4v-2.9L195,98.7z M195,98.7l-3.6,1.4v-2.9L195,98.7z M195,98.7l-3.6,1.4v-2.9L195,98.7z M195,98.7l-3.6,1.4v-2.9L195,98.7z
		 M195,98.7l-3.6,1.4v-2.9L195,98.7z M195,98.7l-3.6,1.4v-2.9L195,98.7z M195,98.7l-3.6,1.4v-2.9L195,98.7z M195,98.7l-3.6,1.4v-2.9
		L195,98.7z M195,98.7l-3.6,1.4v-2.9L195,98.7z M195,98.7l-3.6,1.4v-2.9L195,98.7z M195,98.7l-3.6,1.4v-2.9L195,98.7z M195,98.7
		l-3.6,1.4v-2.9L195,98.7z M195,98.7l-3.6,1.4v-2.9L195,98.7z M195,98.7l-3.6,1.4v-2.9L195,98.7z M194.3,107.7v4.2
		c0,0.9,0.1,1.7,0.4,2.5c0.3,0.8,0.6,1.5,1.1,2.1c0.5,0.6,1.1,1.1,1.8,1.5c0.7,0.3,1.5,0.5,2.4,0.5v6.2c-0.6,0-1.1,0-1.7-0.1
		c-8.5-0.9-15.2-8.2-15.2-16.9V90.1H200v17.6H194.3z M198.4,99.8v-2.1l-11.7-5.1v2.9l2.5,1v4.6l-2.5,1v2.9L198.4,99.8z M191.3,97.3
		l3.6,1.4l-3.6,1.4V97.3z M195,98.7l-3.6,1.4v-2.9L195,98.7z M195,98.7l-3.6,1.4v-2.9L195,98.7z M195,98.7l-3.6,1.4v-2.9L195,98.7z
		 M195,98.7l-3.6,1.4v-2.9L195,98.7z M195,98.7l-3.6,1.4v-2.9L195,98.7z M195,98.7l-3.6,1.4v-2.9L195,98.7z M195,98.7l-3.6,1.4v-2.9
		L195,98.7z M195,98.7l-3.6,1.4v-2.9L195,98.7z M195,98.7l-3.6,1.4v-2.9L195,98.7z M195,98.7l-3.6,1.4v-2.9L195,98.7z M195,98.7
		l-3.6,1.4v-2.9L195,98.7z M195,98.7l-3.6,1.4v-2.9L195,98.7z M195,98.7l-3.6,1.4v-2.9L195,98.7z M195,98.7l-3.6,1.4v-2.9L195,98.7z
		 M195,98.7l-3.6,1.4v-2.9L195,98.7z M195,98.7l-3.6,1.4v-2.9L195,98.7z M195,98.7l-3.6,1.4v-2.9L195,98.7z M195,98.7l-3.6,1.4v-2.9
		L195,98.7z M195,98.7l-3.6,1.4v-2.9L195,98.7z M195,98.7l-3.6,1.4v-2.9L195,98.7z M195,98.7l-3.6,1.4v-2.9L195,98.7z M195,98.7
		l-3.6,1.4v-2.9L195,98.7z"/>
	<path class="st0" d="M200,75.7v11.8h-2.6v-9h0l-3.1,9h-2l-3-9h0v9h-2.6V75.7h3.9l2.7,7.7h0l2.7-7.7H200z"/>
</g>
<g>
	<path class="st0" d="M3.5,110.3v1.5c0,0.5-0.1,1.1-0.2,1.5c-0.1,0.5-0.3,0.9-0.6,1.3c-0.3,0.4-0.6,0.6-1,0.9
		c-0.4,0.2-0.9,0.3-1.5,0.3H0v-5.6H3.5z"/>
	<path class="st0" d="M8.8,97.3v2.9l-3.6-1.4L8.8,97.3z M8.8,97.3v2.9l-3.6-1.4L8.8,97.3z M8.8,97.3v2.9l-3.6-1.4L8.8,97.3z
		 M8.8,97.3v2.9l-3.6-1.4L8.8,97.3z M8.8,97.3v2.9l-3.6-1.4L8.8,97.3z M8.8,97.3v2.9l-3.6-1.4L8.8,97.3z M8.8,97.3v2.9l-3.6-1.4
		L8.8,97.3z M8.8,97.3v2.9l-3.6-1.4L8.8,97.3z M8.8,97.3v2.9l-3.6-1.4L8.8,97.3z M8.8,97.3v2.9l-3.6-1.4L8.8,97.3z M8.8,97.3v2.9
		l-3.6-1.4L8.8,97.3z M8.8,97.3v2.9l-3.6-1.4L8.8,97.3z M8.8,97.3v2.9l-3.6-1.4L8.8,97.3z M8.8,97.3v2.9l-3.6-1.4L8.8,97.3z
		 M8.8,97.3v2.9l-3.6-1.4L8.8,97.3z M8.8,97.3v2.9l-3.6-1.4L8.8,97.3z M8.8,97.3v2.9l-3.6-1.4L8.8,97.3z M8.8,97.3v2.9l-3.6-1.4
		L8.8,97.3z M8.8,97.3v2.9l-3.6-1.4L8.8,97.3z M8.8,97.3v2.9l-3.6-1.4L8.8,97.3z M8.8,97.3v2.9l-3.6-1.4L8.8,97.3z M8.8,97.3v2.9
		l-3.6-1.4L8.8,97.3z M8.8,97.3v2.9l-3.6-1.4L8.8,97.3z M8.8,97.3v2.9l-3.6-1.4L8.8,97.3z M17,90.1v17.6c0,8.8-6.6,16-15.2,16.9h0
		c-0.6,0.1-1.2,0.1-1.8,0.1v-6.2c1.1,0,2-0.2,2.7-0.6c0.8-0.4,1.4-0.9,1.8-1.5c0.5-0.6,0.8-1.4,1-2.2c0.2-0.9,0.3-1.7,0.3-2.7v-3.9
		H0V90.1H17z M13.5,92.6L1.7,97.7v2.1l11.7,5.1V102l-2.5-1v-4.6l2.5-1V92.6z M8.8,100.1l-3.6-1.4l3.6-1.4V100.1z M8.8,97.3v2.9
		l-3.6-1.4L8.8,97.3z M8.8,97.3v2.9l-3.6-1.4L8.8,97.3z M8.8,97.3v2.9l-3.6-1.4L8.8,97.3z M8.8,97.3v2.9l-3.6-1.4L8.8,97.3z
		 M8.8,97.3v2.9l-3.6-1.4L8.8,97.3z M8.8,97.3v2.9l-3.6-1.4L8.8,97.3z M8.8,97.3v2.9l-3.6-1.4L8.8,97.3z M8.8,97.3v2.9l-3.6-1.4
		L8.8,97.3z M8.8,97.3v2.9l-3.6-1.4L8.8,97.3z M8.8,97.3v2.9l-3.6-1.4L8.8,97.3z M8.8,97.3v2.9l-3.6-1.4L8.8,97.3z M8.8,97.3v2.9
		l-3.6-1.4L8.8,97.3z M8.8,97.3v2.9l-3.6-1.4L8.8,97.3z M8.8,97.3v2.9l-3.6-1.4L8.8,97.3z M8.8,97.3v2.9l-3.6-1.4L8.8,97.3z
		 M8.8,97.3v2.9l-3.6-1.4L8.8,97.3z M8.8,97.3v2.9l-3.6-1.4L8.8,97.3z M8.8,97.3v2.9l-3.6-1.4L8.8,97.3z M8.8,97.3v2.9l-3.6-1.4
		L8.8,97.3z M8.8,97.3v2.9l-3.6-1.4L8.8,97.3z M8.8,97.3v2.9l-3.6-1.4L8.8,97.3z M8.8,97.3v2.9l-3.6-1.4L8.8,97.3z M8.8,97.3v2.9
		l-3.6-1.4L8.8,97.3z M8.8,97.3v2.9l-3.6-1.4L8.8,97.3z"/>
	<path class="st0" d="M13.5,75.7v11.8h-3.4l-5.1-8.4h0v8.4H2.3V75.7h3.5l5,8.2h0v-8.2H13.5z"/>
</g>
</svg>
