<?xml version="1.0" encoding="utf-8"?>
<!-- Generator: Adobe Illustrator 20.0.0, SVG Export Plug-In . SVG Version: 6.00 Build 0)  -->
<svg version="1.0" id="Layer_1" xmlns="http://www.w3.org/2000/svg" xmlns:xlink="http://www.w3.org/1999/xlink" x="0px" y="0px"
	 viewBox="0 0 159.1 200.1" style="enable-background:new 0 0 159.1 200.1;" xml:space="preserve">
<style type="text/css">
	.st0{fill:#F4BA41;}
	.st1{fill:#F8DFA6;}
	.st2{fill:#D7C191;}
	.st3{fill:#FFCE56;}
	.st4{fill:#FFE8B8;}
	.st5{fill:#434A54;}
	.st6{fill:#FFFFFF;}
	.st7{clip-path:url(#SVGID_2_);}
	.st8{fill:#886226;}
	.st9{fill:url(#SVGID_3_);}
	.st10{fill:#F38A99;}
	.st11{fill:#D81F30;}
	.st12{fill:#E54154;}
	.st13{fill:#666E78;}
	.st14{fill:#FCE2B0;}
</style>
<g>
	<g>
		<path id="_x34__35_" class="st0" d="M121.7,147.3c-3.2-2.8-8.4-6.3-13.4-6.8c-1.2-0.1-6.6-1.5-12.9-3.2c-0.3-0.1-0.6-0.2-0.9-0.3
			c0,0,0,0,0,0c-0.4-0.1-0.8-0.2-1.2-0.3c-3.9-1.1-8-2.2-11.6-3.2c-0.1,0-0.2,0-0.2-0.1c-0.2-0.1-0.4-0.1-0.6-0.2
			c-0.1,0-0.2-0.1-0.3-0.1c-0.2,0-0.4-0.1-0.5-0.1c-0.1,0-0.2-0.1-0.3-0.1c-0.2,0-0.3-0.1-0.5-0.1c-0.3-0.1-0.6-0.2-0.9-0.2
			c-0.1,0-0.1,0-0.2,0c-0.1,0-0.2-0.1-0.3-0.1c-0.2,0-0.3-0.1-0.5-0.1c-2.4-0.7-4.3-1.2-5.4-1.5c0,0,0,0,0,0
			c-0.2-0.1-0.3-0.1-0.5-0.1c0,0-0.1,0-0.1,0c-0.1,0-0.2-0.1-0.3-0.1c-0.1,0-0.2-0.1-0.2-0.1s-0.1,0-0.3,0.1c0,0,0,0,0,0
			c0,0-0.1,0-0.1,0c0,0-0.1,0-0.1,0c-0.1,0-0.1,0-0.2,0.1c-0.1,0-0.2,0.1-0.4,0.1c-0.1,0-0.1,0-0.2,0c0,0-0.1,0-0.1,0
			c-0.2,0.1-0.4,0.1-0.6,0.2c0,0-0.1,0-0.2,0c0,0,0,0,0,0c-0.1,0-0.3,0.1-0.5,0.1c-0.1,0-0.1,0-0.2,0.1c-0.1,0-0.1,0-0.2,0.1
			c0,0,0,0-0.1,0c0,0,0,0,0,0c-0.1,0-0.3,0.1-0.4,0.1c0,0,0,0,0,0c0,0,0,0-0.1,0c0,0-0.1,0-0.1,0c-0.1,0-0.2,0-0.2,0.1
			c-0.4,0.1-0.9,0.2-1.4,0.4c-0.1,0-0.1,0-0.2,0.1c-0.2,0-0.3,0.1-0.5,0.1c0,0-0.1,0-0.1,0c-0.2,0-0.3,0.1-0.5,0.1
			c-0.1,0-0.2,0.1-0.3,0.1c-0.1,0-0.3,0.1-0.4,0.1c-0.1,0-0.2,0-0.3,0.1c-0.3,0.1-0.5,0.1-0.8,0.2c-0.2,0-0.3,0.1-0.5,0.1
			c-0.1,0-0.2,0.1-0.3,0.1c-0.2,0.1-0.4,0.1-0.5,0.2c-0.1,0-0.2,0.1-0.4,0.1c-0.2,0-0.3,0.1-0.5,0.1c-0.1,0-0.2,0.1-0.4,0.1
			c-0.1,0-0.2,0.1-0.4,0.1c-0.1,0-0.1,0-0.2,0.1c0,0,0,0,0,0c-0.1,0-0.2,0.1-0.3,0.1c-0.1,0-0.3,0.1-0.4,0.1c0,0,0,0-0.1,0
			c-0.1,0-0.2,0.1-0.4,0.1c-0.1,0-0.2,0.1-0.3,0.1c-0.2,0.1-0.5,0.1-0.7,0.2c-0.1,0-0.2,0.1-0.3,0.1c-0.2,0.1-0.4,0.1-0.6,0.2
			c-0.1,0-0.2,0.1-0.4,0.1c-0.2,0.1-0.5,0.1-0.7,0.2c-0.1,0-0.2,0.1-0.3,0.1c-0.1,0-0.1,0-0.2,0c0,0,0,0,0,0
			c-0.2,0.1-0.4,0.1-0.6,0.2c-0.1,0-0.3,0.1-0.4,0.1c-0.2,0.1-0.4,0.1-0.6,0.2c-0.1,0-0.3,0.1-0.4,0.1c-0.2,0.1-0.4,0.1-0.6,0.2
			c-0.1,0-0.3,0.1-0.4,0.1c-0.3,0.1-0.6,0.2-0.8,0.2c0,0-0.1,0-0.1,0c-0.3,0.1-0.6,0.2-1,0.3c-0.1,0-0.2,0.1-0.3,0.1
			c-0.2,0.1-0.4,0.1-0.6,0.2c0,0,0,0,0,0c-0.1,0-0.2,0.1-0.4,0.1c-0.2,0-0.4,0.1-0.5,0.1c-0.1,0-0.3,0.1-0.4,0.1
			c-0.2,0.1-0.4,0.1-0.7,0.2c-6.6,1.8-12.3,3.3-13.5,3.4c-4.9,0.5-10.2,4.1-13.4,6.8c-5.8,5-4.7,11.1-6.4,16.6
			c15.3,13.3,35.3,21.4,57.2,21.4s41.9-8.1,57.2-21.4C126.4,158.4,127.4,152.3,121.7,147.3z"/>
		<path id="_x33__35_" class="st1" d="M70.8,96.5l-18.4-2.4l7.1,38.7c4.9,3.4,6.6,7,7.3,8.9c0.8,2.2,1.2,5.1,1.3,6.1
			c0.4,3,0.3,3.9,0.7,6.5c0.1,0.8,1.1,6.1,2.1,6.1c1.1,0-0.3-7.8,3.7-16.3c2.6-5.4,7.5-11.3,7.5-11.3l0,0l7.1-38.7L70.8,96.5z"/>
		<path id="_x32__24_" class="st2" d="M85.6,100.6L55.3,110l3.1,16.8c4.6,5.7,11.7,11,22.2,11.4c1.2-2.9,1.5-5.5,1.5-5.5l5.3-28.8
			C86.4,101.9,85.6,100.6,85.6,100.6z"/>
		<path id="_x31__24_" class="st3" d="M88.1,134.7l-4.4-6.3c-3.8,4.1-7.7,8.3-11.5,12.4c0.3,1.1,0.6,2.8,0.4,4.8
			c-0.2,2.1-0.9,2.8-1.4,4.9c-1,4.1,0.1,7.1-0.2,7.1c-0.4,0.1-2.2-4.3-2.2-9.6c0-2.9,0.5-5.4,1-7c-3.8-4.2-7.5-8.5-11.3-12.7
			l-3.9,6.3c-0.5,0.5,0,1.4,0,1.4s5.9,13,6.1,14.8c0.2,1.7,1.3,1,1.3,1s4-5.7,5-6.1c0.8-0.3,0.7,1,0.7,1l0.9,19.3h4.9l0.9-19.3
			c0,0-0.1-1.1,0.7-0.8c1,0.4,5,6,5,6s1.5,0.7,1.7-1c0.2-1.7,6.5-14.8,6.5-14.8C88.1,135.6,88.1,135.2,88.1,134.7z"/>
		<path id="face_10_" class="st4" d="M70.8,58.8H43.4c0,0,2.1,37.6,4.8,45.4c3.1,8.8,6.2,10.9,13.2,16.3c5.8,4.6,9.5,4,9.5,4
			s3.6,0.6,9.5-4c7-5.5,10.6-7.6,13.6-16.3c2.7-7.8,4.4-45.4,4.4-45.4H70.8z"/>
		<path id="ear_47_" class="st1" d="M45.4,80.2c0,0-9.9-4.8-7.5,7.3c2.4,12,9.6,10.3,9.6,10.3L45.4,80.2z"/>
		<path id="ear_15_" class="st1" d="M96.6,80.2c0,0,9.9-4.8,7.5,7.3c-2.4,12-9.6,10.3-9.6,10.3L96.6,80.2z"/>
		<g>
			<g>
				<g>
					<path class="st5" d="M75.7,91.6c0.5,2,3.6,2.5,5.5,2.4c1.5-0.1,4-0.9,4.1-2.1c0.2-1.9-5-5.5-7.9-3.8
						C76.3,88.8,75.4,90.3,75.7,91.6z"/>
					<path class="st5" d="M75.7,91.1c0.5,2,3.6,2.5,5.5,2.4c1.5-0.1,4-0.9,4.1-2.1c0.2-1.9-5-5.5-7.9-3.8
						C76.3,88.3,75.4,89.8,75.7,91.1z"/>
					<path class="st1" d="M85.9,88.7c0.1-0.1-1.6-2.9-4.8-3.5c-2.1-0.4-3.9,0.4-4.7,0.8c1.1-0.4,2.6-0.7,4.2-0.4
						C83.9,86.1,85.9,88.8,85.9,88.7z"/>
				</g>
				<path class="st6" d="M75.7,91.4c0.5,2,3.6,2.5,5.5,2.4c1.5-0.1,4-0.9,4.1-2.1c0.2-1.9-5-5.5-7.9-3.8
					C76.3,88.5,75.4,90.1,75.7,91.4z"/>
			</g>
			<g>
				<defs>
					<path id="SVGID_1_" d="M75.7,91.4c0.5,2,3.6,2.5,5.5,2.4c1.5-0.1,4-0.9,4.1-2.1c0.2-1.9-5-5.5-7.9-3.8
						C76.3,88.5,75.4,90.1,75.7,91.4z"/>
				</defs>
				<clipPath id="SVGID_2_">
					<use xlink:href="#SVGID_1_"  style="overflow:visible;"/>
				</clipPath>
				<g class="st7">
					<circle class="st8" cx="80.5" cy="90.1" r="2.8"/>
					<circle class="st5" cx="80.5" cy="90.1" r="1.5"/>
					<path class="st6" d="M81.3,89.4c0.1,0.2,0.1,0.5,0,0.5c-0.1,0-0.1-0.2-0.2-0.3c-0.2-0.2-0.5-0.2-0.5-0.3c0-0.1,0.3-0.2,0.5-0.1
						C81.2,89.2,81.3,89.4,81.3,89.4z"/>
				</g>
			</g>
		</g>
		<g>
			<path class="st5" d="M58.9,83.8c1.8-0.1,3.1,0.2,3.9,0.5c2.1,0.7,2.7,1.7,2.9,2.1c0.1,0.2,0.3,0.6,0.1,0.8
				c-0.1,0.1-0.2,0.1-0.2,0.1c-0.1,0-0.3,0-0.6-0.3c-0.2-0.2-0.3-0.4-0.5-0.6c0,0-0.2-0.2-0.7-0.8c-0.8-0.8-2.1-1.3-2.4-1.4
				C60,83.8,58.9,83.8,58.9,83.8z"/>
			<g>
				<path class="st5" d="M55.3,89.7c-0.1-0.1,1.9-0.9,5-0.7c2.1,0.1,3.8,0.6,4.6,0.8c-1.1-0.2-2.5-0.5-4.1-0.5
					C57.5,89.2,55.4,89.8,55.3,89.7z"/>
			</g>
		</g>
		<linearGradient id="SVGID_3_" gradientUnits="userSpaceOnUse" x1="66.5744" y1="93.7627" x2="74.0744" y2="100.0961">
			<stop  offset="8.071588e-03" style="stop-color:#FCE2B0"/>
			<stop  offset="0.331" style="stop-color:#FCE3B6"/>
			<stop  offset="0.7428" style="stop-color:#FBE6C5"/>
			<stop  offset="1" style="stop-color:#FBE8D3"/>
		</linearGradient>
		<path class="st9" d="M66.4,102.3c-0.3-1,0.4-2,0.6-2.4c2.6-4.4,2.5-11.5,3.8-11.4c1.3,0,0.9,7.1,3.6,11.5c0.2,0.4,0.9,1.5,0.6,2.5
			c-0.2,0.8-1,1.2-2.2,1.9c-0.9,0.5-1.3,0.8-2,0.8c-0.9,0.1-1.6-0.3-2.4-0.8C67.4,103.6,66.6,103.1,66.4,102.3z"/>
		<path class="st5" d="M61.5,109.2c-0.1-0.1-0.2-0.2-0.2-0.3c0,0,0-0.1,0-0.1c0.1-0.1,0.1-0.1,0.3-0.1c0.1,0,0.1,0,0.2,0
			c0.4-0.1,1.1-0.4,1.1-0.4c0.3-0.1,0.8-0.2,1.8-0.1c2.9,0,5.8,0,8.7,0l6.2,1.2c0.3,0.1,0.4,0.2,0.5,0.2c0,0,0.1,0,0.1,0
			c0,0,0,0-0.1,0.1c-0.1,0.1-0.1,0.1-0.1,0.1c-0.2,0.2-2.2,1.9-2.2,1.9l0,0l-6.5,2.4l-5.7-1.3l-3.1-2.1L61.5,109.2z"/>
		<path class="st10" d="M65,112.4c0.1-0.3,0.2-0.8,0.6-1.1c0.7-0.5,1.7-0.4,3.7,0c0.5,0.1,0.8,0.2,1.4,0.2c0.7,0,1.1-0.1,1.7-0.2
			c1-0.2,2.6-0.5,3.3,0.3c0.3,0.4,0.4,0.8,0.4,1.2c-0.9,0.5-2.7,1.4-5.2,1.4C67.9,114.1,65.8,112.9,65,112.4z"/>
		<path class="st6" d="M63.4,108.3c0,0.1,0,0.3,0,0.5c0,0,0.1,0.2,0.2,0.4c0.5,0.8,12.9,0.9,13.6,1c0,0,0.1,0,0.3,0
			c0.4-0.1,0.6-0.6,0.7-1.1c-2.5-0.3-5.1-0.6-7.7-0.9c-1.4-0.1-2.8-0.3-4.1-0.4C65.4,108,64.4,108.1,63.4,108.3z"/>
		<g>
			<g>
				<path class="st11" d="M80.3,109.6c-1.3-0.5-3-1.1-5.1-1.4c-1.7-0.2-3.2-0.2-4.3-0.1c-1.1-0.3-2.9-0.7-5.1-0.5
					c-2,0.2-3.5,0.8-4.5,1.3c1.3-0.3,3.2-0.7,5.7-0.7c2.3,0,3.6,0.3,7,0.8C75.5,109.1,77.7,109.4,80.3,109.6z"/>
				<path class="st12" d="M70.6,113.1c-5.4-0.2-8.6-3.6-9.3-4.3c1.8,3.5,5.3,5.8,9.2,6c4,0.2,7.7-1.9,9.8-5.3
					C79.7,110.2,76.1,113.4,70.6,113.1z"/>
			</g>
		</g>
	</g>
	<path id="_x36__12_" class="st5" d="M62,19.2c0,0-22.2,12.8,16.3,41.4c38.5,28.6,68-8,68-8s-7.1,6.9-14.6,2.5c0,0,12-1.7,11.7-12.6
		c0,0-33.1,19.3-47.4-4.3C81.5,14.5,70.1,15.4,62,19.2z"/>
	<circle id="_x35__10_" class="st0" cx="71.7" cy="35.8" r="5.3"/>
	<path id="_x34__15_" class="st5" d="M70.8,35.5c-51.9,0-28.3,52.3-28.3,52.3C55.7,87,60.9,76.5,62.8,70.6
		c7.6,8.3,21.8,20.7,36.3,17.2C99.1,87.8,122.7,35.5,70.8,35.5z"/>
	<path id="_x33__15_" class="st13" d="M58.2,54c0,0,4.5,43.8,40.9,33.8C99.1,87.8,65.6,78.4,58.2,54z"/>
	<path id="_x32__23_" class="st13" d="M55.3,53.8c0,0-12,26.5-21.8,25.4C33.6,79.2,56.9,90.4,55.3,53.8z"/>
	<path id="_x31__23_" class="st13" d="M69.3,41.6c19.9,2.8,34.4,11.2,35.1,24.1c0.7-14.3-4.9-30.2-33.6-30.2s-34.3,16-33.6,30.2
		C37.9,52.8,43.8,38,69.3,41.6z"/>
	<path class="st14" d="M52.6,95.8c0-0.1,3.7-0.5,6.3,1.9c1.8,1.6,2.2,3.8,2.4,4.8c-0.4-1.3-1.1-2.8-2.4-4.1
		C56.3,95.9,52.6,95.9,52.6,95.8z"/>
</g>
<path class="st14" d="M66.6,85.1c0,0.4-0.1,0.8-0.1,1.1c-0.1,1.2-0.3,1.4-0.5,1.5c-0.1,0.1-0.3,0.1-0.4,0.1c0,0.1,0.1,0.2,0.2,0.3
	c0.1,0,0.2,0,0.3-0.1C67,87.6,66.6,85.1,66.6,85.1z"/>
<path class="st14" d="M63.8,86.4c0,0,0.5,0.2,0.9,0.8c0.1,0.1,0.5,0.6,0.5,1.3c0,0.1,0,0.5-0.2,0.6c0,0-0.1,0.1-0.1,0
	c-0.1,0-0.1-0.3-0.1-0.5c0,0,0-0.6-0.2-1.2C64.4,86.8,63.8,86.4,63.8,86.4z"/>
<path class="st14" d="M56.4,88.9c0.9-0.2,1.9-0.4,3.2-0.4c1.5,0,2.7,0.2,3.7,0.5c-0.4-1.6-1.8-2.7-3.4-2.7
	C58.3,86.3,56.9,87.3,56.4,88.9z"/>
</svg>
