<?xml version="1.0" encoding="utf-8"?>
<!-- Generator: Adobe Illustrator 20.0.0, SVG Export Plug-In . SVG Version: 6.00 Build 0)  -->
<svg version="1.0" id="Layer_1" xmlns="http://www.w3.org/2000/svg" xmlns:xlink="http://www.w3.org/1999/xlink" x="0px" y="0px"
	 viewBox="0 0 33 47" style="enable-background:new 0 0 33 47;" xml:space="preserve">
<style type="text/css">
	.st0{fill:#FFFFFF;}
</style>
<g>
	<g>
		<polygon class="st0" points="8.1,20.7 11.5,22 8.1,23.4 		"/>
		<path class="st0" d="M21.2,22l3.4,1.4v-2.7L21.2,22z M21.2,22l3.4,1.4v-2.7L21.2,22z M0.4,13.9v16.6c0,8.3,6.2,15.1,14.3,15.9
			c0.6,0.1,1.2,0.1,1.7,0.1c0.6,0,1.2,0,1.7-0.1h0c8-0.9,14.3-7.7,14.3-15.9V13.9H0.4z M3.7,27.9v-2.7l2.3-1v-4.3L3.7,19v-2.7
			l11,4.8v2L3.7,27.9z M21.9,34.2c0,0.9-0.1,1.7-0.3,2.5c-0.2,0.8-0.5,1.5-1,2.1c-0.5,0.6-1,1.1-1.7,1.4c-0.7,0.3-1.6,0.5-2.6,0.5
			c-0.9,0-1.7-0.2-2.4-0.5c-0.7-0.3-1.2-0.8-1.7-1.4c-0.5-0.6-0.8-1.2-1.1-2s-0.4-1.5-0.4-2.3v-4h11.1V34.2z M29.1,19l-2.3,0.9v4.3
			l2.3,1v2.7l-11-4.8v-2l11-4.8V19z M24.7,20.7L21.2,22l3.4,1.4V20.7z M13.9,37c0.3,0.4,0.6,0.6,1,0.8c0.4,0.2,1,0.3,1.6,0.3
			c0.5,0,1-0.1,1.4-0.3c0.4-0.2,0.7-0.5,1-0.8c0.3-0.4,0.5-0.8,0.6-1.2c0.1-0.5,0.2-1,0.2-1.5V33h-6.6v1.3c0,0.6,0.1,1.1,0.2,1.6
			C13.4,36.3,13.6,36.7,13.9,37z"/>
		<g>
			<path class="st0" d="M26.6,0.3V8h0l-4.7-7.7h-3.3v11.1H21V3.5h0l4.8,7.9h3.2V0.3H26.6z"/>
			<path class="st0" d="M12.5,0.3L10,7.6h0L7.4,0.3H3.7v11.1h2.4V2.9h0L9,11.4h1.9l2.9-8.5h0v8.5h2.4V0.3H12.5z"/>
		</g>
	</g>
</g>
</svg>
