<?xml version="1.0" encoding="utf-8"?>
<!-- Generator: Adobe Illustrator 20.0.0, SVG Export Plug-In . SVG Version: 6.00 Build 0)  -->
<svg version="1.0" id="Layer_1" xmlns="http://www.w3.org/2000/svg" xmlns:xlink="http://www.w3.org/1999/xlink" x="0px" y="0px"
	 viewBox="0 0 25 35" style="enable-background:new 0 0 25 35;" xml:space="preserve">
<style type="text/css">
	.st0{fill:#99C55D;}
</style>
<path class="st0" d="M24.5,10.4v12.4c0,6.2-4.7,11.3-10.7,12h0c-0.4,0-0.9,0.1-1.3,0.1s-0.9,0-1.3-0.1h0c-6-0.6-10.7-5.8-10.7-12
	V10.4H24.5z"/>
<g>
	<path class="st0" d="M14.1,0.2h2.5L20.1,6h0V0.2H22v8.3h-2.4L16,2.6h0v5.9h-1.8V0.2z"/>
	<path class="st0" d="M3,0.2h2.8l1.9,5.4h0l1.9-5.4h2.8v8.3h-1.8V2.1h0L8.3,8.5H6.9L4.8,2.1h0v6.4H3V0.2z"/>
</g>
</svg>
