<?xml version="1.0" encoding="utf-8"?>
<!-- Generator: Adobe Illustrator 20.0.0, SVG Export Plug-In . SVG Version: 6.00 Build 0)  -->
<svg version="1.0" id="Layer_1" xmlns="http://www.w3.org/2000/svg" xmlns:xlink="http://www.w3.org/1999/xlink" x="0px" y="0px"
	 viewBox="0 0 125 50" style="enable-background:new 0 0 125 50;" xml:space="preserve">
<style type="text/css">
	.st0{fill:#99C55D;}
	.st1{fill:#572773;}
	.st2{fill:#80CBDD;}
</style>
<g>
	<path class="st0" d="M14.7,38.2c-0.1-0.5-0.2-1.1-0.2-1.7v-1.4h7v1.5c0,0.5-0.1,1.1-0.2,1.6c-0.1,0.5-0.3,0.9-0.6,1.3
		c-0.3,0.4-0.6,0.6-1.1,0.9c-0.4,0.2-0.9,0.3-1.5,0.3c-0.7,0-1.2-0.1-1.7-0.3c-0.5-0.2-0.8-0.5-1.1-0.9C15,39.1,14.8,38.7,14.7,38.2
		z"/>
	<path class="st0" d="M23.1,23.5l3.6,1.4v-2.9L23.1,23.5z M23.1,23.5l3.6,1.4v-2.9L23.1,23.5z M9.1,22.1V25l3.6-1.4L9.1,22.1z
		 M23.1,23.5l3.6,1.4v-2.9L23.1,23.5z M23.1,23.5l3.6,1.4v-2.9L23.1,23.5z M9.1,22.1V25l3.6-1.4L9.1,22.1z M9.1,22.1V25l3.6-1.4
		L9.1,22.1z M23.1,23.5l3.6,1.4v-2.9L23.1,23.5z M23.1,23.5l3.6,1.4v-2.9L23.1,23.5z M9.1,22.1V25l3.6-1.4L9.1,22.1z M9.1,22.1V25
		l3.6-1.4L9.1,22.1z M23.1,23.5l3.6,1.4v-2.9L23.1,23.5z M23.1,23.5l3.6,1.4v-2.9L23.1,23.5z M9.1,22.1V25l3.6-1.4L9.1,22.1z
		 M0.9,14.9v17.6c0,8.8,6.6,16,15.2,16.9c0.6,0.1,1.2,0.1,1.8,0.1c0.6,0,1.2,0,1.8-0.1h0C28.4,48.5,35,41.3,35,32.5V14.9H0.9z
		 M4.5,29.8v-2.9l2.5-1v-4.6l-2.5-1v-2.9l11.7,5.1v2.1L4.5,29.8z M23.8,36.4c0,0.9-0.1,1.8-0.3,2.7c-0.2,0.9-0.5,1.6-1,2.2
		c-0.5,0.6-1.1,1.1-1.8,1.5c-0.8,0.4-1.7,0.6-2.7,0.6c-1,0-1.8-0.2-2.5-0.5c-0.7-0.4-1.3-0.8-1.8-1.5c-0.5-0.6-0.9-1.3-1.1-2.1
		c-0.2-0.8-0.4-1.6-0.4-2.5v-4.2h11.8V36.4z M31.4,20.3l-2.5,1v4.6l2.5,1v2.9l-11.7-5.1v-2.1l11.7-5.1V20.3z M26.7,22.1l-3.6,1.4
		l3.6,1.4V22.1z M9.1,25l3.6-1.4l-3.6-1.4V25z M9.1,22.1V25l3.6-1.4L9.1,22.1z M23.1,23.5l3.6,1.4v-2.9L23.1,23.5z M23.1,23.5
		l3.6,1.4v-2.9L23.1,23.5z M9.1,22.1V25l3.6-1.4L9.1,22.1z M9.1,22.1V25l3.6-1.4L9.1,22.1z M23.1,23.5l3.6,1.4v-2.9L23.1,23.5z
		 M23.1,23.5l3.6,1.4v-2.9L23.1,23.5z M9.1,22.1V25l3.6-1.4L9.1,22.1z M9.1,22.1V25l3.6-1.4L9.1,22.1z M23.1,23.5l3.6,1.4v-2.9
		L23.1,23.5z M23.1,23.5l3.6,1.4v-2.9L23.1,23.5z M9.1,22.1V25l3.6-1.4L9.1,22.1z"/>
	<g>
		<path class="st0" d="M28.8,0.5v8.2h0l-5-8.2h-3.5v11.8h2.6V3.9h0l5.1,8.4h3.4V0.5H28.8z"/>
		<path class="st0" d="M13.9,0.5l-2.7,7.7h0L8.4,0.5H4.5v11.8h2.6v-9h0l3,9h2l3.1-9h0v9h2.6V0.5H13.9z"/>
	</g>
	<polygon class="st1" points="53.6,22.1 57.3,23.5 53.6,25 	"/>
	<path class="st1" d="M59,35.1v1.4c0,0.6,0.1,1.1,0.2,1.7c0.1,0.5,0.3,1,0.6,1.3c0.3,0.4,0.7,0.7,1.1,0.9c0.5,0.2,1,0.3,1.7,0.3
		c0.6,0,1.1-0.1,1.5-0.3c0.4-0.2,0.8-0.5,1-0.9c0.3-0.4,0.5-0.8,0.6-1.3c0.1-0.5,0.2-1,0.2-1.6v-1.5H59z M67.6,23.5l3.7,1.4v-2.9
		L67.6,23.5z M67.6,23.5l3.7,1.4v-2.9L67.6,23.5z M59,35.1v1.4c0,0.6,0.1,1.1,0.2,1.7c0.1,0.5,0.3,1,0.6,1.3
		c0.3,0.4,0.7,0.7,1.1,0.9c0.5,0.2,1,0.3,1.7,0.3c0.6,0,1.1-0.1,1.5-0.3c0.4-0.2,0.8-0.5,1-0.9c0.3-0.4,0.5-0.8,0.6-1.3
		c0.1-0.5,0.2-1,0.2-1.6v-1.5H59z M59,35.1v1.4c0,0.6,0.1,1.1,0.2,1.7c0.1,0.5,0.3,1,0.6,1.3c0.3,0.4,0.7,0.7,1.1,0.9
		c0.5,0.2,1,0.3,1.7,0.3c0.6,0,1.1-0.1,1.5-0.3c0.4-0.2,0.8-0.5,1-0.9c0.3-0.4,0.5-0.8,0.6-1.3c0.1-0.5,0.2-1,0.2-1.6v-1.5H59z
		 M67.6,23.5l3.7,1.4v-2.9L67.6,23.5z M67.6,23.5l3.7,1.4v-2.9L67.6,23.5z M59,35.1v1.4c0,0.6,0.1,1.1,0.2,1.7
		c0.1,0.5,0.3,1,0.6,1.3c0.3,0.4,0.7,0.7,1.1,0.9c0.5,0.2,1,0.3,1.7,0.3c0.6,0,1.1-0.1,1.5-0.3c0.4-0.2,0.8-0.5,1-0.9
		c0.3-0.4,0.5-0.8,0.6-1.3c0.1-0.5,0.2-1,0.2-1.6v-1.5H59z M45.5,14.9v17.6c0,8.8,6.6,16,15.2,16.9c0.6,0.1,1.2,0.1,1.8,0.1
		c0.6,0,1.2,0,1.9-0.1h0c8.5-0.9,15.2-8.1,15.2-16.9V14.9H45.5z M49,29.8v-2.9l2.5-1v-4.6l-2.5-1v-2.9l11.7,5.1v2.1L49,29.8z
		 M68.3,36.4c0,0.9-0.1,1.8-0.3,2.7c-0.2,0.9-0.6,1.6-1,2.2c-0.5,0.6-1.1,1.1-1.8,1.5c-0.8,0.4-1.7,0.6-2.7,0.6
		c-1,0-1.8-0.2-2.5-0.5c-0.7-0.4-1.3-0.8-1.8-1.5c-0.5-0.6-0.9-1.3-1.1-2.1c-0.3-0.8-0.4-1.6-0.4-2.5v-4.2h11.8V36.4z M75.9,20.3
		l-2.5,1v4.6l2.5,1v2.9l-11.7-5.1v-2.1l11.7-5.1V20.3z M71.3,22.1l-3.7,1.4l3.7,1.4V22.1z M59.8,39.5c0.3,0.4,0.7,0.7,1.1,0.9
		c0.5,0.2,1,0.3,1.7,0.3c0.6,0,1.1-0.1,1.5-0.3c0.4-0.2,0.8-0.5,1-0.9c0.3-0.4,0.5-0.8,0.6-1.3c0.1-0.5,0.2-1,0.2-1.6v-1.5h-7v1.4
		c0,0.6,0.1,1.1,0.2,1.7C59.3,38.7,59.5,39.1,59.8,39.5z M59,35.1v1.4c0,0.6,0.1,1.1,0.2,1.7c0.1,0.5,0.3,1,0.6,1.3
		c0.3,0.4,0.7,0.7,1.1,0.9c0.5,0.2,1,0.3,1.7,0.3c0.6,0,1.1-0.1,1.5-0.3c0.4-0.2,0.8-0.5,1-0.9c0.3-0.4,0.5-0.8,0.6-1.3
		c0.1-0.5,0.2-1,0.2-1.6v-1.5H59z M67.6,23.5l3.7,1.4v-2.9L67.6,23.5z M67.6,23.5l3.7,1.4v-2.9L67.6,23.5z M59,35.1v1.4
		c0,0.6,0.1,1.1,0.2,1.7c0.1,0.5,0.3,1,0.6,1.3c0.3,0.4,0.7,0.7,1.1,0.9c0.5,0.2,1,0.3,1.7,0.3c0.6,0,1.1-0.1,1.5-0.3
		c0.4-0.2,0.8-0.5,1-0.9c0.3-0.4,0.5-0.8,0.6-1.3c0.1-0.5,0.2-1,0.2-1.6v-1.5H59z M67.6,23.5l3.7,1.4v-2.9L67.6,23.5z M67.6,23.5
		l3.7,1.4v-2.9L67.6,23.5z"/>
	<g>
		<path class="st1" d="M73.3,0.5v8.2h0l-5-8.2h-3.5v11.8h2.6V3.9h0l5.1,8.4h3.4V0.5H73.3z"/>
		<path class="st1" d="M58.4,0.5l-2.7,7.7h0l-2.7-7.7H49v11.8h2.6v-9h0l3,9h2l3.1-9h0v9h2.6V0.5H58.4z"/>
	</g>
	<path class="st2" d="M103.7,38.2c-0.1-0.5-0.2-1.1-0.2-1.7v-1.4h7v1.5c0,0.5-0.1,1.1-0.2,1.6c-0.1,0.5-0.3,0.9-0.6,1.3
		c-0.3,0.4-0.6,0.6-1,0.9c-0.4,0.2-0.9,0.3-1.5,0.3c-0.7,0-1.2-0.1-1.7-0.3c-0.5-0.2-0.8-0.5-1.1-0.9
		C104,39.1,103.8,38.7,103.7,38.2z"/>
	<path class="st2" d="M112.2,23.5l3.7,1.4v-2.9L112.2,23.5z M112.2,23.5l3.7,1.4v-2.9L112.2,23.5z M90,14.9v17.6
		c0,8.8,6.6,16,15.2,16.9c0.6,0.1,1.2,0.1,1.9,0.1c0.6,0,1.2,0,1.8-0.1h0c8.5-0.9,15.2-8.1,15.2-16.9V14.9H90z M93.5,29.8v-2.9
		l2.5-1v-4.6l-2.5-1v-2.9l11.7,5.1v2.1L93.5,29.8z M112.9,36.4c0,0.9-0.1,1.8-0.3,2.7c-0.2,0.9-0.5,1.6-1,2.2
		c-0.5,0.6-1.1,1.1-1.8,1.5c-0.8,0.4-1.7,0.6-2.7,0.6c-0.9,0-1.8-0.2-2.5-0.5c-0.7-0.4-1.3-0.8-1.8-1.5c-0.5-0.6-0.9-1.3-1.1-2.1
		c-0.3-0.8-0.4-1.6-0.4-2.5v-4.2h11.8V36.4z M120.5,20.3l-2.5,1v4.6l2.5,1v2.9l-11.7-5.1v-2.1l11.7-5.1V20.3z M115.8,22.1l-3.7,1.4
		l3.7,1.4V22.1z M98.2,25l3.7-1.4l-3.7-1.4V25z"/>
	<g>
		<path class="st2" d="M117.9,0.5v8.2h0l-5-8.2h-3.5v11.8h2.6V3.9h0l5.1,8.4h3.4V0.5H117.9z"/>
		<path class="st2" d="M102.9,0.5l-2.7,7.7h0l-2.7-7.7h-3.9v11.8h2.6v-9h0l3,9h2l3.1-9h0v9h2.6V0.5H102.9z"/>
	</g>
</g>
</svg>
