<?xml version="1.0" encoding="utf-8"?>
<!-- Generator: Adobe Illustrator 20.0.0, SVG Export Plug-In . SVG Version: 6.00 Build 0)  -->
<svg version="1.0" id="Layer_1" xmlns="http://www.w3.org/2000/svg" xmlns:xlink="http://www.w3.org/1999/xlink" x="0px" y="0px"
	 viewBox="0 0 190 50" style="enable-background:new 0 0 190 50;" xml:space="preserve">
<style type="text/css">
	.st0{fill:#FFFFFF;}
</style>
<g>
	<g>
		<path class="st0" d="M56,20.3l-2.9,8.9l-2.8-8.9h-5.1v12.9h2.9v-9.7l3.2,9.7h3.2l3.2-9.7v9.7h3V20.3H56z"/>
		<path class="st0" d="M71.3,20.3h-2.9l-5.2,12.9h3.2l1.1-3.2h4.3l1,3.2h3.3L71.3,20.3z M68.4,27.6l1.4-4.1l1.3,4.1H68.4z"/>
		<path class="st0" d="M86.9,20.3v9.3l-3.8-9.3h-4.5v12.9h2.9v-9.3l3.8,9.3h4.6V20.3H86.9z"/>
		<path class="st0" d="M98.3,20.3h-4.7v12.9h4.7c4.2,0,6.1-1.7,6.1-6.5C104.4,21.9,102.3,20.3,98.3,20.3z M98.5,30.8h-1.9v-8.2h1.7
			c1.3,0,3,0,3,4.1C101.3,30.5,99.9,30.8,98.5,30.8z"/>
		<path class="st0" d="M114.2,27.9c2.2-0.5,2.9-2.1,2.9-3.8c0-3.2-2.4-3.9-4.5-3.9h-5.2v12.9h3V28h0.2l3.7,5.1h3.7L114.2,27.9z
			 M112.7,25.7h-2.3v-3.1h2.3c1,0,1.3,0.7,1.3,1.5C114,25,113.5,25.7,112.7,25.7z"/>
		<path class="st0" d="M127.5,20.3h-2.9l-5.2,12.9h3.2l1.1-3.2h4.3l1,3.2h3.3L127.5,20.3z M124.6,27.6l1.4-4.1l1.3,4.1H124.6z"/>
		<path class="st0" d="M139,26v2.3h2.9v2.5c-0.6,0.3-0.9,0.4-1.8,0.4c-2.4,0-3.1-1.4-3.1-4.5c0-3.7,1.5-4.4,3.3-4.4
			c0.9,0,1.7,0.4,2.5,0.7l0.9-2.5c-0.9-0.2-2.5-0.5-3.4-0.5c-4.5,0-6.4,2.8-6.4,6.7c0,3.5,1.2,6.8,6.2,6.8c2.1,0,3.2-0.4,4.5-1.2V26
			H139z"/>
		<path class="st0" d="M153.2,20c-4.7,0-6.4,3-6.4,6.8c0,3.9,1.5,6.8,6.3,6.8c4.7,0,6.3-3,6.3-6.8C159.5,22.8,157.8,20,153.2,20z
			 M153.2,31.2c-2,0-3.2-0.8-3.2-4.5c0-3.4,1.2-4.4,3.2-4.4c2,0,3.2,1,3.2,4.4C156.3,29.9,155.3,31.2,153.2,31.2z"/>
		<path class="st0" d="M169.2,27.9c2.2-0.5,3-2.1,3-3.8c0-3.2-2.4-3.9-4.5-3.9h-5.2v12.9h3V28h0.2l3.7,5.1h3.7L169.2,27.9z
			 M167.8,25.7h-2.3v-3.1h2.3c1,0,1.3,0.7,1.3,1.5C169.1,25,168.6,25.7,167.8,25.7z"/>
		<path class="st0" d="M182.6,20.3h-2.9l-5.2,12.9h3.2l1.1-3.2h4.3l1,3.2h3.4L182.6,20.3z M179.6,27.6l1.4-4.1l1.3,4.1H179.6z"/>
	</g>
	<g>
		<polygon class="st0" points="27.2,24.9 23.7,23.5 27.2,22.2 		"/>
		<path class="st0" d="M10.2,22.2v2.8l3.5-1.4L10.2,22.2z M10.2,22.2v2.8l3.5-1.4L10.2,22.2z M2.4,15.3v16.9
			c0,8.4,6.4,15.4,14.6,16.3c0.6,0.1,1.2,0.1,1.8,0.1c0.6,0,1.2,0,1.8-0.1h0c8.2-0.9,14.6-7.8,14.6-16.3V15.3H2.4z M5.8,29.5v-2.8
			l2.4-1v-4.4l-2.4-0.9v-2.7L17,22.6v2.1L5.8,29.5z M24.4,35.9c0,0.9-0.1,1.8-0.3,2.6c-0.2,0.8-0.5,1.5-1,2.1
			c-0.5,0.6-1,1.1-1.8,1.4c-0.7,0.4-1.6,0.5-2.6,0.5c-0.9,0-1.7-0.2-2.4-0.5c-0.7-0.3-1.3-0.8-1.8-1.4c-0.5-0.6-0.8-1.3-1.1-2
			c-0.2-0.8-0.4-1.6-0.4-2.4v-4.1h11.3V35.9z M31.7,20.5l-2.4,0.9v4.4l2.4,1v2.8l-11.3-4.9v-2.1l11.3-4.9V20.5z M16.1,38.9
			c0.3,0.4,0.6,0.6,1.1,0.8s1,0.3,1.6,0.3c0.5,0,1-0.1,1.4-0.3c0.4-0.2,0.8-0.5,1-0.8c0.3-0.4,0.5-0.8,0.6-1.2
			c0.1-0.5,0.2-1,0.2-1.5v-1.5h-6.7V36c0,0.6,0.1,1.1,0.2,1.6C15.7,38.1,15.9,38.5,16.1,38.9z M10.2,24.9l3.5-1.4l-3.5-1.4V24.9z"/>
		<g>
			<path class="st0" d="M29.2,1.4v7.8h0l-4.8-7.8H21v11.3h2.5v-8h0l4.9,8h3.3V1.4H29.2z"/>
			<path class="st0" d="M14.8,1.4l-2.6,7.4h0L9.5,1.4H5.8v11.3h2.5V4.1h0l2.8,8.7h1.9l3-8.7h0v8.7h2.5V1.4H14.8z"/>
		</g>
	</g>
</g>
</svg>
