<?xml version="1.0" encoding="utf-8"?>
<!-- Generator: Adobe Illustrator 20.0.0, SVG Export Plug-In . SVG Version: 6.00 Build 0)  -->
<svg version="1.0" id="Layer_1" xmlns="http://www.w3.org/2000/svg" xmlns:xlink="http://www.w3.org/1999/xlink" x="0px" y="0px"
	 viewBox="0 0 120 170" style="enable-background:new 0 0 120 170;" xml:space="preserve">
<style type="text/css">
	.st0{fill:#572773;}
</style>
<g>
	<polygon class="st0" points="29.9,75 42.3,79.9 29.9,84.8 	"/>
	<path class="st0" d="M77.5,79.9l12.4,4.9V75L77.5,79.9z M77.5,79.9l12.4,4.9V75L77.5,79.9z M2,50.6v59.9
		c0,29.9,22.6,54.5,51.7,57.7c2,0.2,4.1,0.3,6.2,0.3c2.1,0,4.2-0.1,6.3-0.3h0c29.1-3.1,51.7-27.8,51.7-57.7V50.6H2z M14,101.1v-9.9
		l8.5-3.4V72.3L14,68.9v-9.7l39.9,17.3v7.3L14,101.1z M80,123.8c0,3.2-0.4,6.2-1.1,9.1c-0.7,2.9-1.9,5.4-3.5,7.5
		c-1.6,2.2-3.7,3.9-6.2,5.1s-5.7,1.9-9.3,1.9c-3.2,0-6.1-0.6-8.6-1.8c-2.5-1.2-4.5-2.9-6.2-4.9c-1.7-2.1-2.9-4.5-3.8-7.2
		c-0.9-2.7-1.3-5.6-1.3-8.5v-14.4h40V123.8z M105.8,68.9l-8.5,3.3v15.5l8.5,3.4v9.9L65.8,83.8v-7.3l39.9-17.3V68.9z M89.9,75
		l-12.4,4.9l12.4,4.9V75z M50.8,134.2c1,1.3,2.2,2.3,3.8,3c1.6,0.7,3.5,1.1,5.7,1.1c2,0,3.7-0.4,5.1-1.1c1.4-0.7,2.6-1.7,3.6-3
		s1.7-2.7,2.1-4.4c0.5-1.7,0.7-3.4,0.7-5.3v-5.2H48.1v4.6c0,2,0.2,3.9,0.6,5.7C49.1,131.4,49.8,132.9,50.8,134.2z"/>
	<g>
		<path class="st0" d="M97,1.5v27.8h-0.1l-17-27.8h-12v40h8.8V13.1h0.1l17.5,28.5h11.5v-40H97z"/>
		<path class="st0" d="M46,1.5l-9.3,26.1h-0.1L27.5,1.5H14.1v40h8.8V10.9H23l10.1,30.7h6.7l10.5-30.7h0.1v30.7h8.8v-40H46z"/>
	</g>
</g>
</svg>
