<?xml version="1.0" encoding="utf-8"?>
<!-- Generator: Adobe Illustrator 20.0.0, SVG Export Plug-In . SVG Version: 6.00 Build 0)  -->
<svg version="1.0" id="Layer_1" xmlns="http://www.w3.org/2000/svg" xmlns:xlink="http://www.w3.org/1999/xlink" x="0px" y="0px"
	 viewBox="0 0 18.7 19" style="enable-background:new 0 0 18.7 19;" xml:space="preserve">
<style type="text/css">
	.st0{fill:#FFFFFF;}
</style>
<g id="tT2ChH.tif_1_">
	<g>
		<path class="st0" d="M7.7,1.4c0.2,0,0.4,0,0.6,0c0,0,0.1,0,0.1,0c0.4,0,0.8,0.1,1.1,0.2c1.1,0.3,2.2,0.8,3,1.6
			C14,4.4,14.8,6,14.9,7.9c0,0.5,0,1.1-0.1,1.6c-0.1,0.8-0.4,1.6-0.9,2.4c0,0,0,0,0,0.1c0,0,0,0,0.1,0.1c1.3,1.3,2.6,2.6,3.9,3.9
			c0.1,0.1,0.1,0.1,0.1,0.2c0,0.1,0,0.2,0,0.2c0,0.1,0,0.1,0,0.2c-0.1,0.2-0.2,0.4-0.4,0.6c-0.2,0.2-0.4,0.4-0.7,0.7
			c-0.2,0.2-0.4,0.4-0.7,0.4c0,0,0,0,0,0c-0.1,0-0.1,0-0.2,0c-0.1,0-0.1-0.1-0.2-0.1c-1.3-1.3-2.5-2.6-3.8-3.8c0,0,0,0-0.1-0.1
			c0,0,0,0,0,0c0,0,0,0-0.1,0c-1,0.6-2.1,1-3.3,1.1c-0.4,0-0.7,0-1.1,0C7,15.1,6.6,15,6.3,15c-1.4-0.4-2.6-1.1-3.5-2.2
			c-1-1.1-1.5-2.5-1.6-4c0-0.1,0-0.1,0-0.2c0-0.2,0-0.4,0-0.6c0,0,0,0,0-0.1c0-0.1,0-0.2,0-0.3c0-0.4,0.1-0.8,0.2-1.2
			C2.1,3.6,4.7,1.5,7.7,1.4C7.7,1.4,7.7,1.4,7.7,1.4z M3.4,8.3c0,2.5,2,4.6,4.6,4.6c2.5,0,4.6-2.1,4.6-4.6c0-2.6-2.1-4.6-4.6-4.6
			C5.5,3.7,3.4,5.7,3.4,8.3z"/>
	</g>
</g>
</svg>
