<?xml version="1.0" encoding="utf-8"?>
<!-- Generator: Adobe Illustrator 20.0.0, SVG Export Plug-In . SVG Version: 6.00 Build 0)  -->
<svg version="1.0" id="Layer_1" xmlns="http://www.w3.org/2000/svg" xmlns:xlink="http://www.w3.org/1999/xlink" x="0px" y="0px"
	 viewBox="0 0 95 95" style="enable-background:new 0 0 95 95;" xml:space="preserve">
<style type="text/css">
	.st0{fill:#FFFFFF;}
</style>
<path class="st0" d="M11.9,41.8v10.9c0,1-0.8,1.8-1.8,1.8H-0.1v-0.8h10.2c0.6,0,1-0.5,1-1V41.8c0-0.6-0.5-1.1-1-1.1H-0.1v-0.7h10.2
	C11.1,40.1,11.9,40.9,11.9,41.8z"/>
<path class="st0" d="M83.4,41.8v10.9c0,0.6,0.5,1,1,1h3.4c0,0,0.1,0,0.1,0c0,0,0,0,0,0c0.2,0.1,0.4,0.3,0.4,0.5c0,0.1,0,0.1,0,0.2
	c0,0,0,0,0,0l-0.2,0.4l-1.6,3.3l4.6-3.3l0.4-0.3l0.8-0.5c0.1-0.1,0.3-0.2,0.5-0.2c0.1,0,0.1,0,0.2,0h2.2v0.8H93
	c-0.1,0-0.2,0-0.3,0.1l-0.9,0.7l-6,4.4c-0.1,0-0.1,0.1-0.2,0.1s-0.2,0-0.2-0.1c-0.1-0.1-0.2-0.3-0.1-0.5l2.2-4.6l0-0.1h-3
	c-1,0-1.8-0.8-1.8-1.8V41.8c0-1,0.8-1.8,1.8-1.8h10.7v0.7H84.4C83.9,40.8,83.4,41.3,83.4,41.8z"/>
<path class="st0" d="M60-0.4v6.1c0,1-0.8,1.8-1.8,1.8H45.3c-0.1,0-0.2,0-0.3,0.1l-0.9,0.7l-6,4.4c-0.1,0-0.1,0.1-0.2,0.1
	c-0.1,0-0.2,0-0.2-0.1c-0.1-0.1-0.2-0.3-0.1-0.5l2.2-4.6l0-0.1h-3c-1,0-1.8-0.8-1.8-1.8v-6.1h0.7v6.1c0,0.6,0.5,1,1,1h3.4
	c0,0,0.1,0,0.1,0c0,0,0,0,0,0c0.2,0.1,0.4,0.3,0.4,0.5c0,0.1,0,0.1,0,0.2c0,0,0,0,0,0l-0.2,0.4l-1.6,3.3l4.6-3.3l0.4-0.3L44.6,7
	c0.1-0.1,0.3-0.2,0.5-0.2c0.1,0,0.1,0,0.2,0h12.9c0.6,0,1-0.5,1-1v-6.1H60z"/>
<path class="st0" d="M60,89.3v6h-0.8v-6c0-0.6-0.5-1-1-1H36.8c-0.6,0-1,0.5-1,1v6H35v-6c0-1,0.8-1.8,1.8-1.8h21.4
	C59.2,87.5,60,88.3,60,89.3z"/>
<path class="st0" d="M17.3,33.5c0.3-0.3,0.3-0.8,0-1.1c-0.3-0.3-0.8-0.3-1.1,0l-0.1,0.1c-0.3,0.3-0.3,0.8,0,1.1
	c0.1,0.1,0.3,0.2,0.5,0.2C16.9,33.8,17.1,33.7,17.3,33.5L17.3,33.5z"/>
<path class="st0" d="M13,37.8c0.3-0.3,0.3-0.8,0-1.1c-0.3-0.3-0.8-0.3-1.1,0l-0.1,0.1c-0.3,0.3-0.3,0.8,0,1.1
	c0.1,0.1,0.3,0.2,0.5,0.2C12.6,38.1,12.8,38,13,37.8L13,37.8z"/>
<path class="st0" d="M21.6,29.2c0.3-0.3,0.3-0.8,0-1.1c-0.3-0.3-0.8-0.3-1.1,0l-0.1,0.1c-0.3,0.3-0.3,0.8,0,1.1
	c0.1,0.1,0.3,0.2,0.5,0.2C21.2,29.4,21.4,29.4,21.6,29.2L21.6,29.2z"/>
<path class="st0" d="M63.9,79.4L63.9,79.4c-0.4,0.4-0.4,0.8-0.1,1.1c0.1,0.1,0.3,0.2,0.5,0.2c0.2,0,0.4-0.1,0.5-0.2l0.1-0.1
	c0.3-0.3,0.3-0.8,0-1.1C64.7,79.1,64.2,79.1,63.9,79.4z"/>
<path class="st0" d="M59.6,83.7L59.6,83.7c-0.4,0.4-0.3,0.8,0,1.1c0.1,0.1,0.3,0.2,0.5,0.2c0.2,0,0.4-0.1,0.6-0.2
	c0.3-0.3,0.3-0.8,0-1.1C60.4,83.4,59.9,83.4,59.6,83.7z"/>
<path class="st0" d="M68.3,75.1L68.3,75.1c-0.4,0.4-0.4,0.8-0.1,1.1c0.1,0.1,0.3,0.2,0.5,0.2c0.2,0,0.4-0.1,0.5-0.2l0.1-0.1
	c0.3-0.3,0.3-0.8,0-1.1C69,74.8,68.6,74.8,68.3,75.1z"/>
<path class="st0" d="M72.6,70.8L72.6,70.8c-0.4,0.4-0.4,0.8-0.1,1.1c0.1,0.1,0.3,0.2,0.5,0.2c0.2,0,0.4-0.1,0.5-0.2l0.1-0.1
	c0.3-0.3,0.3-0.8,0-1.1C73.3,70.5,72.9,70.5,72.6,70.8z"/>
<path class="st0" d="M34.5,16.2c0.3-0.3,0.3-0.7,0-1s-0.8-0.3-1.1,0c-0.3,0.3-0.3,0.8,0,1.1c0.1,0.1,0.3,0.2,0.5,0.2
	S34.3,16.4,34.5,16.2L34.5,16.2z"/>
<path class="st0" d="M76.9,66.5L76.9,66.5c-0.4,0.4-0.4,0.8-0.1,1.1c0.1,0.1,0.3,0.2,0.5,0.2c0.2,0,0.4-0.1,0.5-0.2l0.1-0.1
	c0.3-0.3,0.3-0.8,0-1.1C77.7,66.2,77.2,66.2,76.9,66.5z"/>
<path class="st0" d="M81.2,62.1L81.2,62.1c-0.4,0.4-0.3,0.8,0,1.1c0.1,0.1,0.3,0.2,0.5,0.2c0.2,0,0.4-0.1,0.6-0.2
	c0.3-0.3,0.3-0.8,0-1.1C82,61.8,81.5,61.8,81.2,62.1z"/>
<path class="st0" d="M25.9,24.8c0.3-0.3,0.3-0.7,0-1c-0.3-0.3-0.8-0.3-1.1,0c-0.3,0.3-0.3,0.8,0,1.1c0.1,0.1,0.3,0.2,0.5,0.2
	C25.5,25.1,25.7,25.1,25.9,24.8L25.9,24.8z"/>
<path class="st0" d="M30.2,20.5c0.3-0.3,0.3-0.7,0-1c-0.3-0.3-0.8-0.3-1.1,0c-0.3,0.3-0.3,0.8,0,1.1c0.1,0.1,0.3,0.2,0.5,0.2
	C29.8,20.8,30,20.7,30.2,20.5L30.2,20.5z"/>
<path class="st0" d="M68,13.7c-0.3-0.3-0.8-0.3-1.1,0c-0.3,0.3-0.3,0.8,0,1.1l0.1,0.1c0.1,0.1,0.3,0.2,0.5,0.2
	c0.2,0,0.4-0.1,0.5-0.2C68.3,14.5,68.3,14,68,13.7z"/>
<path class="st0" d="M72.3,18c-0.3-0.3-0.8-0.3-1.1,0c-0.3,0.3-0.3,0.8,0,1.1l0.1,0.1c0.1,0.1,0.3,0.2,0.5,0.2
	c0.2,0,0.4-0.1,0.5-0.2C72.6,18.8,72.6,18.3,72.3,18z"/>
<path class="st0" d="M26.8,70.2c-0.3-0.3-0.8-0.3-1.1,0c-0.3,0.3-0.3,0.8,0,1.1l0.1,0.1c0.1,0.1,0.3,0.2,0.5,0.2
	c0.2,0,0.4-0.1,0.5-0.2C27.2,71.1,27.2,70.6,26.8,70.2L26.8,70.2z"/>
<path class="st0" d="M18.2,61.6c-0.3-0.3-0.8-0.3-1.1,0c-0.3,0.3-0.3,0.8,0,1.1l0.1,0.1c0.1,0.1,0.3,0.2,0.5,0.2
	c0.2,0,0.4-0.1,0.5-0.2C18.6,62.4,18.6,62,18.2,61.6L18.2,61.6z"/>
<path class="st0" d="M76.6,22.3c-0.3-0.3-0.8-0.3-1.1,0s-0.3,0.8,0,1.1l0.1,0.1c0.1,0.1,0.3,0.2,0.5,0.2c0.2,0,0.4-0.1,0.5-0.2
	C77,23.1,76.9,22.6,76.6,22.3z"/>
<path class="st0" d="M80.9,26.6c-0.3-0.3-0.8-0.3-1.1,0c-0.3,0.3-0.3,0.8,0,1.1l0.1,0.1c0.1,0.1,0.3,0.2,0.5,0.2
	c0.2,0,0.4-0.1,0.5-0.2C81.3,27.4,81.2,26.9,80.9,26.6z"/>
<path class="st0" d="M22.5,65.9c-0.3-0.3-0.8-0.3-1.1,0c-0.3,0.3-0.3,0.8,0,1.1l0.1,0.1c0.1,0.1,0.3,0.2,0.5,0.2
	c0.2,0,0.4-0.1,0.5-0.2C22.9,66.8,22.9,66.3,22.5,65.9L22.5,65.9z"/>
<path class="st0" d="M84.3,32.1c0.1,0.1,0.3,0.2,0.5,0.2c0.2,0,0.4-0.1,0.5-0.2c0.3-0.3,0.3-0.8,0-1.1c-0.3-0.3-0.8-0.3-1.1,0
	C83.9,31.2,83.9,31.7,84.3,32.1L84.3,32.1z"/>
<path class="st0" d="M35.5,78.9c-0.3-0.3-0.7-0.3-1,0c-0.3,0.3-0.3,0.8,0,1.1c0.1,0.1,0.3,0.2,0.5,0.2c0.2,0,0.4-0.1,0.5-0.2
	C35.8,79.7,35.8,79.2,35.5,78.9L35.5,78.9z"/>
<path class="st0" d="M88.6,36.4c0.1,0.1,0.3,0.2,0.5,0.2c0.2,0,0.4-0.1,0.5-0.2c0.3-0.3,0.3-0.8,0-1.1l-0.1-0.1
	c-0.3-0.3-0.8-0.3-1.1,0C88.2,35.6,88.2,36,88.6,36.4L88.6,36.4z"/>
<path class="st0" d="M31.2,74.5c-0.3-0.3-0.7-0.3-1,0c-0.3,0.3-0.3,0.8,0,1.1c0.1,0.1,0.3,0.2,0.5,0.2c0.2,0,0.4-0.1,0.5-0.2
	C31.5,75.4,31.5,74.9,31.2,74.5L31.2,74.5z"/>
<path class="st0" d="M63.8,9.5L63.8,9.5c-0.4-0.4-0.8-0.4-1.1-0.1c-0.3,0.3-0.3,0.8,0,1.1l0.1,0.1c0.1,0.1,0.3,0.2,0.5,0.2
	c0.2,0,0.4-0.1,0.5-0.2C64.1,10.2,64.1,9.7,63.8,9.5z"/>
<path class="st0" d="M39.8,83.2c-0.3-0.3-0.7-0.3-1,0c-0.3,0.3-0.3,0.8,0,1.1c0.1,0.1,0.3,0.2,0.5,0.2c0.2,0,0.4-0.1,0.5-0.2
	C40.1,84,40.1,83.5,39.8,83.2L39.8,83.2z"/>
<path class="st0" d="M13.9,57.3c-0.3-0.3-0.7-0.3-1,0c-0.3,0.3-0.3,0.8,0,1.1c0.1,0.1,0.3,0.2,0.5,0.2c0.2,0,0.4-0.1,0.5-0.2
	C14.3,58.1,14.3,57.7,13.9,57.3L13.9,57.3z"/>
</svg>
